<?xml version="1.0" standalone="no"?>
<!DOCTYPE svg PUBLIC "-//W3C//DTD SVG 1.1//EN" "http://www.w3.org/Graphics/SVG/1.1/DTD/svg11.dtd" >
<svg xmlns="http://www.w3.org/2000/svg">
<metadata></metadata>
<defs>
<font id="open_sans_hebrewlight_italic" horiz-adv-x="1128" >
<font-face units-per-em="2048" ascent="1638" descent="-410" />
<missing-glyph horiz-adv-x="532" />
<glyph unicode="&#xd;" horiz-adv-x="1044" />
<glyph unicode=" "  horiz-adv-x="532" />
<glyph unicode="&#x09;" horiz-adv-x="532" />
<glyph unicode="&#xa0;" horiz-adv-x="532" />
<glyph unicode="!" horiz-adv-x="502" d="M186 377l203 1085h119l-260 -1085h-62zM80 57q0 56 25 88.5t69 32.5q66 0 66 -72q0 -54 -25.5 -88t-67.5 -34q-67 0 -67 73z" />
<glyph unicode="&#x22;" horiz-adv-x="721" d="M309 934h-61l80 528h127zM639 934h-61l79 528h127z" />
<glyph unicode="#" horiz-adv-x="1323" d="M508 928h-297l8 80h311l134 454h90l-136 -454h365l135 454h86l-135 -454h285l-8 -80h-302l-118 -398h303l-8 -79h-320l-133 -451h-90l135 451h-360l-134 -451h-88l134 451h-283l8 79h299zM838 530l120 398h-362l-121 -398h363z" />
<glyph unicode="$" d="M928 467q0 -151 -111 -243.5t-297 -102.5l-53 -240h-82l51 240q-175 5 -295 61v94q65 -34 152 -53.5t162 -19.5l110 512q-107 51 -153 91q-90 81 -90 204q0 156 105.5 250.5t272.5 99.5l41 192h80l-41 -192q148 -4 277 -68l-35 -78q-108 61 -256 70l-109 -514 q125 -60 172 -100q99 -79 99 -203zM410 1018q0 -79 37.5 -129t136.5 -96l102 491q-133 -9 -204.5 -79.5t-71.5 -186.5zM842 461q0 76 -48 129.5t-157 97.5l-100 -485q143 7 224 74.5t81 183.5z" />
<glyph unicode="%" horiz-adv-x="1556" d="M760 1198q0 -174 -50 -326t-135.5 -230.5t-197.5 -78.5t-172 76t-60 230.5t51.5 305t137 228.5t194.5 78q232 0 232 -283zM319 0h-106l1135 1462h110zM637.5 1353.5q-36.5 53.5 -114.5 53.5t-144.5 -71.5t-107 -203.5t-40.5 -254.5t40.5 -181.5t118.5 -59t143.5 73 t103 205t37.5 258.5t-36.5 180zM1520 612q0 -174 -50 -326t-135.5 -230.5t-197.5 -78.5t-172 76t-60 230.5t51.5 305t137 228.5t199.5 78q227 0 227 -283zM1397.5 767.5q-36.5 53.5 -115 53.5t-144.5 -72t-106.5 -202t-40.5 -254t40.5 -183t113.5 -59q130 0 209.5 167 t79.5 386q0 110 -36.5 163.5z" />
<glyph unicode="&#x26;" horiz-adv-x="1331" d="M444 -20q-167 0 -267 94q-99 94 -99 253t99 274.5t325 215.5l-41 67q-78 128 -78 251q0 157 100.5 253.5t264.5 96.5q144 0 226.5 -76.5t82.5 -206.5q0 -164 -162 -282q-78 -57 -256 -138l330 -463q73 74 136 177t91 186h111q-102 -247 -285 -436l184 -246h-123l-131 184 q-122 -109 -243 -156.5t-265 -47.5zM748 1395q-125 0 -194 -68t-69 -196.5t109 -276.5q201 88 279 163q77 75 77 183q0 90 -56 142.5t-146 52.5zM176 328q0 -118 77.5 -191.5t211.5 -73.5q108 0 212 43t222 146l-352 493q-166 -81 -232 -135q-139 -112 -139 -282z" />
<glyph unicode="'" horiz-adv-x="403" d="M315 934h-61l80 528h127z" />
<glyph unicode="(" horiz-adv-x="526" d="M250 -324q-146 263 -146 599.5t121.5 626.5t382.5 560h105q-259 -276 -384.5 -568t-125.5 -614t127 -604h-80z" />
<glyph unicode=")" horiz-adv-x="526" d="M307 1462q146 -263 146 -601.5t-123 -628t-381 -556.5h-105q258 274 384 567t126 610.5t-127 608.5h80z" />
<glyph unicode="*" horiz-adv-x="1137" d="M725 1135l438 8l-8 -107l-416 29l181 -401l-115 -37l-135 417l-285 -348l-78 78l318 318l-392 125l39 102l394 -168l47 408l121 -19z" />
<glyph unicode="+" d="M162 672v100h401v404h101v-404h401v-100h-401v-400h-101v400h-401z" />
<glyph unicode="," horiz-adv-x="451" d="M250 238l8 -23q-35 -93 -113 -232t-161 -247h-74q80 133 142.5 275t86.5 227h111z" />
<glyph unicode="-" horiz-adv-x="629" d="M100 592h457l-16 -90h-459z" />
<glyph unicode="." horiz-adv-x="485" d="M82 55q0 56 25 88.5t69 32.5q66 0 66 -72q0 -54 -25 -88t-67 -34q-68 0 -68 73z" />
<glyph unicode="/" horiz-adv-x="641" d="M10 0h-110l815 1462h112z" />
<glyph unicode="0" d="M1075 1016q0 -198 -40.5 -403t-117.5 -348q-151 -285 -425 -285q-353 0 -353 514q0 184 44 381q45 197 124 334q160 276 428 276q340 0 340 -469zM913 1301.5q-60 95.5 -192 95.5t-239.5 -113t-173.5 -329t-66 -445t63 -335.5t199.5 -106.5t241.5 112q104 112 165.5 336 t61.5 490q0 200 -60 295.5z" />
<glyph unicode="1" d="M432 0l225 1055q23 110 74 293q-41 -35 -71.5 -58t-253.5 -164l-52 78l406 258h90l-313 -1462h-105z" />
<glyph unicode="2" d="M961 1149q0 114 -67 179t-196 65q-176 0 -333 -129l-54 73q181 146 394 146q173 0 268.5 -85t95.5 -237q0 -109 -44 -209t-140.5 -211t-311.5 -303l-383 -338v-4h736l-17 -96h-870l22 104l449 402q200 179 285.5 278t125.5 186t40 179z" />
<glyph unicode="3" d="M705 1483q160 0 252 -83t92 -226q0 -163 -106.5 -275.5t-285.5 -142.5v-4q117 -24 185.5 -115.5t68.5 -229.5q0 -200 -138 -313.5t-364 -113.5h-16q-190 0 -338 73v101q174 -86 344 -86q197 0 303.5 89.5t106.5 252.5q0 144 -88.5 222.5t-247.5 78.5h-117l21 96h110 q208 0 333 95q124 96 124 259q0 115 -64 175.5t-188 60.5q-166 0 -344 -131l-49 75q179 142 406 142z" />
<glyph unicode="4" d="M807 371l-80 -371h-96l80 371h-688l20 96l881 1010h118l-215 -1018h265l-21 -88h-264zM150 459h579q91 424 126.5 592.5t78.5 320.5h-4q-63 -88 -129 -166z" />
<glyph unicode="5" d="M582 879q188 0 292.5 -102t104.5 -279q0 -237 -148 -378q-149 -140 -407 -140q-81 0 -176.5 20t-159.5 51v107q169 -90 340 -90q208 0 328.5 114.5t120.5 313.5q0 140 -85.5 219.5t-221 79.5t-246.5 -41l-66 49l193 659h624l-18 -96h-541l-149 -516q99 29 215 29z" />
<glyph unicode="6" d="M678 909q161 0 250.5 -100.5t89.5 -282.5v-10q0 -229 -134.5 -382.5t-342.5 -153.5h-11q-171 0 -265.5 118.5t-94.5 329.5q0 283 105 544q204 509 653 509q124 0 182 -21l-18 -90q-87 23 -170 23q-234 0 -393.5 -173.5t-233.5 -502.5h8q140 192 375 192zM550 68 q105 0 190 59t130 161.5t45 224.5v5q0 147 -67 225t-195 78q-164 0 -283 -119q-56 -56 -78 -114t-22 -174q0 -164 72 -255t201 -91h7z" />
<glyph unicode="7" d="M1040 1366h-766l23 96h858l-20 -110l-779 -1352h-112z" />
<glyph unicode="8" d="M332 1114q0 158 113.5 264.5t284.5 106.5t265.5 -85.5t94.5 -225.5t-83.5 -236.5t-285.5 -173.5q129 -78 189.5 -170t60.5 -209q0 -179 -130 -292t-354 -113q-177 0 -284 92q-105 93 -105 253t100.5 269.5t321.5 187.5q-99 71 -143.5 151t-44.5 181zM922.5 1335.5 q-70.5 63.5 -198 63.5t-212.5 -82q-84 -83 -84 -203q0 -91 42 -159.5t157 -141.5q192 61 279 144t87 199t-70.5 179.5zM296 565q-95 -95 -95 -227.5t77 -203.5t220 -71q169 0 270.5 91.5t101.5 232.5q0 105 -63 190t-197 156q-218 -74 -314 -168z" />
<glyph unicode="9" d="M559 545q-162 0 -255 105t-93 284q0 154 59 281q60 127 171.5 196.5t256.5 69.5q174 0 267.5 -115.5t93.5 -333.5q0 -288 -101.5 -547t-262.5 -382t-394 -123q-116 0 -186 22v90q89 -29 192 -29q474 0 627 674h-8q-140 -192 -367 -192zM676 1393q-159 0 -261 -127 t-102 -313v-11q0 -145 67.5 -225t192.5 -80q82 0 156.5 32t129 87t77 113.5t22.5 177.5q0 166 -71 256t-201 90h-10z" />
<glyph unicode=":" horiz-adv-x="485" d="M260 989q0 57 25.5 89t68.5 32q66 0 66 -72q0 -55 -25 -89t-67 -34q-68 0 -68 74zM102 55q0 56 25.5 88.5t69.5 32.5q65 0 65 -72q0 -55 -25.5 -88.5t-66.5 -33.5q-68 0 -68 73z" />
<glyph unicode=";" horiz-adv-x="485" d="M266 989q0 57 25.5 89t68.5 32q66 0 66 -72q0 -55 -25 -89t-67 -34q-68 0 -68 74zM287 238l8 -23q-34 -95 -117.5 -241t-157.5 -238h-73q80 133 142.5 275t86.5 227h111z" />
<glyph unicode="&#x3c;" d="M137 676v74l914 471v-103l-801 -399l801 -350v-107z" />
<glyph unicode="=" d="M168 985h903v-100h-903v100zM168 559h903v-98h-903v98z" />
<glyph unicode="&#x3e;" d="M971 719l-801 399v103l915 -471v-74l-915 -414v107z" />
<glyph unicode="?" horiz-adv-x="799" d="M778 1159q0 108 -67.5 170t-182.5 62q-138 0 -307 -101l-39 86q186 107 352 107t257.5 -84.5t91.5 -220.5t-66.5 -243.5t-230.5 -225.5q-85 -61 -133 -109t-72.5 -94t-46.5 -144h-92l6 29q28 131 82 206q51 73 163 152.5t169 140.5q116 127 116 269zM170 59q0 56 25 88.5 t69 32.5q66 0 66 -71q0 -55 -25 -89t-67 -34q-68 0 -68 73z" />
<glyph unicode="@" horiz-adv-x="1724" d="M798 -184q-148 0 -273 47q-256 98 -354 356q-47 126 -47 277v12q0 276 121.5 493.5t337 337t473.5 119.5q190 0 330 -73q141 -71 221 -212t80 -316.5t-56 -321t-154 -228t-203.5 -82.5t-162.5 54.5t-57 144.5h-4q-54 -96 -132 -147.5t-169 -51.5q-112 0 -178 73.5 t-66 201.5v13q0 226 140.5 383t351.5 157h10q123 0 252 -52l-84 -315q-39 -140 -39 -216.5t35 -116.5t100 -40q87 0 160.5 73.5t117 198.5t43.5 251v6q0 233 -145.5 379.5t-388.5 146.5h-10q-235 0 -424.5 -108.5t-295.5 -303.5t-106 -440q0 -288 155 -449t435 -161 q208 0 420 82v-90q-209 -82 -428 -82h-6zM1000 969q-107 0 -198 -59t-142 -164.5t-51 -229.5v-10q0 -92 40.5 -142.5t113.5 -50.5q101 0 180.5 89.5t124.5 254.5l78 289q-67 23 -139 23h-7z" />
<glyph unicode="A" horiz-adv-x="1059" d="M293 520l-287 -520h-117l822 1468h67l201 -1468h-105l-69 520h-512zM793 612l-39 291q-32 241 -39 402q-20 -41 -56 -111.5t-315 -581.5h449z" />
<glyph unicode="B" horiz-adv-x="1202" d="M791 1462q189 0 290 -84t101 -238.5t-89.5 -251t-254.5 -124.5v-4q124 -30 188 -112t64 -206q0 -206 -140 -324t-391 -118h-457l310 1462h379zM655 811q206 0 313 81t107 238q0 119 -78 180.5t-229 61.5h-272l-119 -561h278zM565 90q202 0 310 88t108 256q0 145 -90 216 t-275 71h-260l-135 -631h342z" />
<glyph unicode="C" horiz-adv-x="1169" d="M961 1389q-197 0 -350.5 -103.5t-245 -304.5t-91.5 -434t110.5 -354t317.5 -121q141 0 304 51v-94q-154 -49 -316 -49q-253 0 -386.5 145.5t-133.5 410t104 487.5q105 223 285.5 341.5t401.5 118.5q176 0 307 -68l-45 -90q-117 64 -262 64z" />
<glyph unicode="D" horiz-adv-x="1350" d="M717 1462q282 0 426.5 -147.5t144.5 -435.5q0 -253 -109 -460.5t-299.5 -313t-447.5 -105.5h-330l310 1462h305zM430 90q227 0 395.5 94t260.5 276t92 412q0 498 -476 498h-206l-275 -1280h209z" />
<glyph unicode="E" horiz-adv-x="1067" d="M102 0l310 1462h727l-21 -94h-624l-117 -553h590l-21 -94h-588l-135 -627h627l-21 -94h-727z" />
<glyph unicode="F" horiz-adv-x="981" d="M102 0l310 1462h708l-20 -94h-604l-134 -620h570l-21 -95h-569l-137 -653h-103z" />
<glyph unicode="G" horiz-adv-x="1374" d="M707 -20q-257 0 -397 146t-140 416t105 488.5t283 335.5t396 117q115 0 206 -19.5t181 -58.5l-38 -94q-104 44 -185.5 61t-171.5 17q-184 0 -339 -107.5t-244 -302t-89 -428t114.5 -356.5t326.5 -123q153 0 309 47l117 526h-303l18 90h406l-150 -682q-210 -73 -405 -73z " />
<glyph unicode="H" horiz-adv-x="1366" d="M963 0l151 719h-760l-149 -719h-103l310 1462h102l-139 -649h760l137 649h100l-309 -1462h-100z" />
<glyph unicode="I" horiz-adv-x="504" d="M412 1462h98l-309 -1462h-99z" />
<glyph unicode="J" horiz-adv-x="477" d="M-180 -360q-98 0 -144 24l11 92q58 -20 137 -20q213 0 262 241l309 1485h105l-314 -1491q-35 -170 -125 -250.5t-241 -80.5z" />
<glyph unicode="K" horiz-adv-x="1122" d="M868 0l-342 788l-190 -153l-131 -635h-103l310 1462h102l-158 -723l133 121l680 602h138l-699 -610l371 -852h-111z" />
<glyph unicode="L" horiz-adv-x="938" d="M412 1462h102l-289 -1366h621l-23 -96h-721z" />
<glyph unicode="M" horiz-adv-x="1669" d="M1505 1462h150l-301 -1462h-101l191 901q82 378 100 447h-6l-780 -1348h-51l-222 1348h-6q-19 -154 -78 -426l-196 -922h-96l309 1462h143l205 -1257h6z" />
<glyph unicode="N" horiz-adv-x="1372" d="M983 0l-516 1284h-8q-23 -148 -54.5 -302.5t-207.5 -981.5h-95l310 1462h80l522 -1294h8q22 171 74 416l188 878h94l-309 -1462h-86z" />
<glyph unicode="O" horiz-adv-x="1464" d="M893 1483q247 0 378.5 -148.5t131.5 -414.5t-93.5 -490t-251 -337t-366.5 -113q-250 0 -385 149t-135 421t93 487t255 330.5t373 115.5zM879 1389q-173 0 -309 -101q-134 -101 -214 -298.5t-80 -416.5q0 -245 109.5 -373t319.5 -128q169 0 300 98q131 99 210 300 t79 436.5t-104.5 359t-310.5 123.5z" />
<glyph unicode="P" horiz-adv-x="1145" d="M727 1462q202 0 310 -92.5t108 -267.5q0 -500 -610 -500h-201l-129 -602h-103l310 1462h315zM541 694q253 0 374 97t121 305q0 274 -329 274h-211l-146 -676h191z" />
<glyph unicode="Q" horiz-adv-x="1464" d="M307 129q-135 149 -135 421t93 487t255 330.5t373 115.5q247 0 378.5 -148.5t131.5 -423.5q0 -217 -70 -418q-138 -399 -461 -491l267 -350h-142l-231 332l-74 -4q-250 0 -385 149zM879 1389q-173 0 -309 -101q-134 -101 -214 -298.5t-80 -416.5q0 -245 109.5 -373 t319.5 -128q169 0 300 98q131 99 210 300t79 436.5t-104.5 359t-310.5 123.5z" />
<glyph unicode="R" horiz-adv-x="1145" d="M715 1462q430 0 430 -360q0 -181 -103.5 -302.5t-281.5 -152.5q191 -562 221 -647h-111l-211 633h-323l-131 -633h-103l310 1462h303zM610 725q208 0 317 96t109 281q0 268 -329 268h-211l-138 -645h252z" />
<glyph unicode="S" horiz-adv-x="1020" d="M688 1397q-162 0 -259 -82.5t-97 -218.5q0 -103 49 -170t182 -133q156 -80 213 -130q119 -101 119 -260q0 -126 -66 -225q-131 -198 -448 -198q-186 0 -344 75v109q164 -92 350 -92t293.5 86.5t107.5 232.5q0 87 -31 133q-13 20 -23 34t-33 32t-38 29t-48.5 31 t-54.5 31.5t-64 35.5q-151 77 -210 164q-59 89 -59 206v7q0 111 59.5 201t164.5 139t232 49h5q100 0 181 -18t167 -60l-32 -94q-66 40 -152.5 63t-163.5 23z" />
<glyph unicode="T" horiz-adv-x="985" d="M336 0l289 1368h-432l20 94h973l-19 -94h-440l-289 -1368h-102z" />
<glyph unicode="U" horiz-adv-x="1370" d="M616 -20q-440 0 -440 401q0 83 27 201l186 880h103l-193 -899q-20 -91 -20 -184q0 -309 342 -309q195 0 307.5 97t158.5 318l207 977h101l-207 -977q-59 -270 -197 -388q-139 -117 -375 -117z" />
<glyph unicode="V" horiz-adv-x="1079" d="M453 147h4q52 114 124 247l572 1068h117l-799 -1462h-88l-182 1462h100l117 -950q27 -227 35 -365z" />
<glyph unicode="W" horiz-adv-x="1702" d="M1026 1341h-8q-24 -68 -58 -144t-567 -1197h-82l-73 1462h100l47 -1031l4 -165l-2 -86h6q87 231 170 398l434 884h105l61 -878q19 -259 19 -410h6q35 100 60 161t495 1127h108q-120 -259 -338.5 -749.5t-320.5 -712.5h-78l-78 1075q-10 140 -10 176.5v42.5v47z" />
<glyph unicode="X" horiz-adv-x="971" d="M772 0l-254 678l-526 -678h-127l608 766l-272 696h106l240 -626l483 626h119l-555 -719l285 -743h-107z" />
<glyph unicode="Y" horiz-adv-x="965" d="M1038 1462h117l-631 -932l-108 -530h-105l119 545l-237 917h100l201 -817z" />
<glyph unicode="Z" d="M-12 0l22 92l1069 1276h-764l23 94h887l-19 -88l-1069 -1280h799l-23 -94h-925z" />
<glyph unicode="[" horiz-adv-x="537" d="M-57 -324l376 1786h429l-19 -90h-330l-340 -1605h330l-20 -91h-426z" />
<glyph unicode="\" horiz-adv-x="641" d="M537 0h-82l-246 1462h86z" />
<glyph unicode="]" horiz-adv-x="537" d="M629 1462l-377 -1786h-428l18 91h330l340 1605h-330l21 90h426z" />
<glyph unicode="^" horiz-adv-x="1047" d="M657 1475h91l260 -906h-105l-217 809l-500 -809h-116z" />
<glyph unicode="_" horiz-adv-x="801" d="M-182 -291l18 86h807l-18 -86h-807z" />
<glyph unicode="`" horiz-adv-x="1135" d="M766 1241h-66q-50 53 -114.5 145.5t-98.5 161.5v21h115q48 -132 164 -303v-25z" />
<glyph unicode="a" horiz-adv-x="1133" d="M383 -20q-281 0 -281 374q0 197 75 375.5t200 276.5q127 98 278 98q233 0 279 -219h6l59 202h80l-229 -1087h-82l45 274h-6q-87 -146 -190 -220t-234 -74zM205 365q0 -295 194 -295q95 0 183 61.5t159 165.5t108.5 229.5t37.5 214.5q0 123 -60 200t-177 77t-216.5 -81.5 t-164 -245t-64.5 -326.5z" />
<glyph unicode="b" horiz-adv-x="1151" d="M772 1108q281 0 281 -375q0 -204 -75.5 -380t-201 -272.5t-276.5 -96.5q-113 0 -186 58.5t-97 166.5h-6l-55 -209h-80l327 1556h95q-130 -626 -162 -751h6q92 155 198 229t232 74zM901 946.5q-49 71.5 -145 71.5t-185 -61t-162 -170q-72 -111 -106.5 -237.5t-34.5 -203.5 q0 -130 64 -203t166 -73q123 0 223 82t164.5 244.5t64.5 320.5t-49 229.5z" />
<glyph unicode="c" horiz-adv-x="887" d="M750 37q-116 -57 -281.5 -57t-266.5 110q-100 110 -100 305.5t73.5 363.5t198.5 256.5t290 88.5q136 0 241 -43l-28 -90q-108 47 -227.5 47t-223.5 -77t-162.5 -223t-58.5 -311.5t73.5 -251t209 -85.5t262.5 59v-92z" />
<glyph unicode="d" horiz-adv-x="1133" d="M383 -20q-281 0 -281 374q0 192 71 370q72 178 198 278q126 102 284 102q229 0 279 -219h4q10 54 143 671h99l-330 -1556h-82l45 274h-6q-173 -294 -424 -294zM406 70q89 0 178 62t160 169t107 231.5t36 208.5q0 125 -61.5 201t-176.5 76t-215 -82t-164.5 -242 t-64.5 -329q0 -295 201 -295z" />
<glyph unicode="e" horiz-adv-x="928" d="M768 49q-140 -69 -306 -69t-263 109t-97 297t71 355t195.5 265t274.5 98q115 0 182.5 -61.5t67.5 -165.5q0 -182 -164.5 -276.5t-484.5 -94.5h-33q-6 -43 -6 -98q0 -165 74 -251.5t210 -86.5t279 73v-94zM274 594q517 0 517 270q0 68 -44 111t-116 43q-131 0 -244 -116 t-162 -308h49z" />
<glyph unicode="f" horiz-adv-x="578" d="M-131 -492q-49 0 -102 19v90q51 -16 100 -16q87 0 134 52.5t75 186.5l246 1166h-205l14 67l205 14l35 160q35 168 116.5 244t227.5 76q74 0 166 -31l-25 -80q-87 27 -147 27q-97 0 -154 -54t-84 -178l-35 -164h248l-16 -81h-248l-252 -1190q-33 -161 -104 -234.5 t-195 -73.5z" />
<glyph unicode="g" horiz-adv-x="1040" d="M901 799q0 -110 -54 -206t-147 -145t-215 -49q-63 0 -77 9q-81 -33 -124.5 -73t-43.5 -81.5t32.5 -64.5t112.5 -31l121 -11q346 -31 346 -264q2 -170 -144 -272.5t-390 -102.5h-9q-185 0 -292 72q-105 72 -105 203q0 236 309 334q-78 42 -78 123q0 122 191 202 q-71 36 -110.5 105.5t-39.5 157.5v11q0 102 53.5 194t147.5 145t199 53h8q69 0 147 -21h361l-17 -79l-243 -11q26 -28 43.5 -84t17.5 -114zM343 541.5q58 -58.5 156 -58.5q194 0 265 151q37 75 37 174t-56 156.5t-157 57.5h-11q-125 0 -208.5 -92.5t-83.5 -211t58 -177z M84.5 -37q-70.5 -69 -70.5 -169t79.5 -150t225.5 -50q203 0 317 74t114 205q0 85 -63 130q-61 46 -218 58l-160 15q-154 -44 -224.5 -113z" />
<glyph unicode="h" horiz-adv-x="1143" d="M913 692q21 92 21 165t-44.5 117t-133.5 44q-113 0 -211 -67q-194 -132 -269 -474l-102 -477h-98l332 1556h96l-86 -411q-44 -199 -66 -279h6q78 113 186.5 175.5t231 62.5t190.5 -65t68 -183q0 -70 -24 -182l-148 -674h-98z" />
<glyph unicode="i" horiz-adv-x="475" d="M350 1366q0 55 22 88t60 33q57 0 57 -72q0 -56 -21.5 -89.5t-57.5 -33.5q-60 0 -60 74zM76 0l231 1087h96l-229 -1087h-98z" />
<glyph unicode="j" horiz-adv-x="475" d="M350 1366q0 55 22 88t60 33q57 0 57 -72q0 -56 -21.5 -89.5t-57.5 -33.5q-60 0 -60 74zM-166 -492q-63 0 -113 19v92q45 -22 120.5 -22t122 51.5t71.5 177.5l266 1261h96l-268 -1271q-35 -163 -105.5 -235.5t-189.5 -72.5z" />
<glyph unicode="k" horiz-adv-x="944" d="M879 1087h125l-474 -469l297 -618h-106l-264 559l-205 -188l-80 -371h-96l330 1556h96l-166 -780l-70 -299h4z" />
<glyph unicode="l" horiz-adv-x="475" d="M76 0l334 1556h94l-334 -1556h-94z" />
<glyph unicode="m" horiz-adv-x="1751" d="M883 836q0 182 -154 182q-105 0 -200 -68q-186 -133 -259 -475l-100 -475h-98l231 1087h80l-33 -210h6q79 112 180.5 169.5t210.5 57.5t166 -67t60 -195h6q77 128 180.5 195t222 67t183.5 -62t65 -176q0 -28 -2 -52.5t-20 -123.5l-152 -690h-100l149 680q25 118 25 185.5 t-43 110t-119 42.5q-156 0 -277 -137t-169 -363l-109 -518h-102l147 674q25 122 25 162z" />
<glyph unicode="n" horiz-adv-x="1143" d="M913 692q21 92 21 165t-44.5 117t-133.5 44q-113 0 -211 -67q-195 -132 -269 -474l-102 -477h-98l231 1087h82l-37 -221h6q163 238 416 238q129 0 194.5 -63.5t65.5 -184.5q0 -70 -24 -182l-148 -674h-98z" />
<glyph unicode="o" horiz-adv-x="1124" d="M649 1108q181 0 278 -109q99 -108 99 -301.5t-71.5 -365.5t-195.5 -262t-286 -90q-183 0 -279 109t-96 308t73 365t197 256t281 90zM851 939q-73 83 -204 83t-230 -79t-157.5 -225.5t-58.5 -309.5q0 -342 282 -342q127 0 225 77t157 229t59 318t-73 249z" />
<glyph unicode="p" horiz-adv-x="1149" d="M770 1108q137 0 209 -94t72 -285t-72.5 -367.5t-197.5 -277t-283 -100.5q-230 0 -279 219h-4q-20 -107 -149 -695h-99l336 1579h82l-45 -274h6q175 295 424 295zM748 1018q-87 0 -174 -58.5t-162 -168.5t-110.5 -237.5t-35.5 -207.5q0 -125 61 -200.5t177 -75.5t217 84.5 t164 244t63 324.5q0 295 -200 295z" />
<glyph unicode="q" horiz-adv-x="1157" d="M379 -20q-281 0 -281 374q0 200 75.5 378.5t200 275t277.5 96.5q110 0 184 -58.5t99 -166.5h6l55 208h80l-327 -1556h-95l98 470l64 282h-6q-92 -155 -198 -229t-232 -74zM248 143.5q47 -73.5 145.5 -73.5t189.5 62q90 63 160.5 172.5t105 237t34.5 199.5 q0 130 -63.5 203.5t-166.5 73.5q-123 0 -223 -82t-164.5 -244.5t-64.5 -318.5t47 -229.5z" />
<glyph unicode="r" horiz-adv-x="752" d="M713 1106q67 0 123 -14l-21 -93q-46 15 -113 15q-94 0 -179 -64t-153.5 -193t-99.5 -276l-100 -481h-98l231 1087h80l-29 -204h6q74 95 123 135q105 88 230 88z" />
<glyph unicode="s" horiz-adv-x="827" d="M782 952q-135 64 -257 64t-192.5 -52.5t-70.5 -138.5q0 -54 17 -88q34 -66 180 -145q114 -63 161 -104q93 -77 93 -193q0 -145 -103 -230t-278 -85t-307 75v107q156 -96 297 -96t214.5 57.5t73.5 163.5q0 43 -15.5 74.5t-51 61.5t-131.5 85q-145 78 -198.5 144t-53.5 161 q0 128 98 209.5t260 81.5q75 0 157 -17t142 -47z" />
<glyph unicode="t" horiz-adv-x="616" d="M236 207q0 -139 126 -139q66 0 152 26v-86q-99 -28 -170 -28q-100 0 -153.5 54.5t-53.5 158.5q0 70 29 206l129 607h-182l14 67l184 17l97 253h55l-55 -256h286l-18 -81h-283l-135 -635q-22 -97 -22 -164z" />
<glyph unicode="u" horiz-adv-x="1143" d="M207 231q0 -75 48 -118t138 -43h9q159 0 288 146.5t174 385.5l105 485h98l-231 -1087h-80l28 205h-6q-167 -221 -403 -221q-131 0 -198.5 62t-67.5 181q0 63 22 170l150 690h100l-152 -698q-22 -104 -22 -158z" />
<glyph unicode="v" horiz-adv-x="895" d="M104 1087h101l108 -735q25 -164 33 -254h6q50 113 129 256l406 733h102l-600 -1087h-113z" />
<glyph unicode="w" horiz-adv-x="1393" d="M764 952h-6q-35 -93 -144 -290l-356 -662h-117l-20 1087h92l13 -821l-3 -157h6q61 133 150 297l373 681h77l64 -681q14 -152 14 -297h6l24 61l101 236l320 681h96l-508 -1087h-108l-60 686q-14 232 -14 266z" />
<glyph unicode="x" horiz-adv-x="922" d="M49 0h-121l471 559l-245 528h100l207 -462l373 462h120l-448 -534l258 -553h-98l-224 483z" />
<glyph unicode="y" horiz-adv-x="920" d="M-88 -492q-68 0 -129 21v92q71 -27 143 -27q155 0 271 214l100 184l-174 1095h100l82 -548q50 -346 55 -449h11q43 103 186 367l348 630h103l-713 -1290q-71 -126 -123 -178q-109 -111 -260 -111z" />
<glyph unicode="z" horiz-adv-x="887" d="M-29 0l15 72l776 932h-543l17 83h659l-18 -83l-762 -920h602l-17 -84h-729z" />
<glyph unicode="{" horiz-adv-x="709" d="M444 -324h-20q-256 0 -256 199q0 47 16 115l56 252q18 90 18 127q0 159 -199 159l21 78q125 0 190.5 49t89.5 158l89 393q30 135 106 195.5t215 60.5h29l-17 -86q-86 -2 -128.5 -20.5t-69.5 -61t-45 -120.5l-74 -338q-30 -133 -92 -195q-62 -60 -164 -78v-4 q68 -18 105.5 -68t37.5 -111.5t-24 -174.5l-47 -225q-13 -56 -13 -109t37 -81t139 -28v-86z" />
<glyph unicode="|" d="M684 1561v-2071h-100v2071h100z" />
<glyph unicode="}" horiz-adv-x="709" d="M332 1462q129 0 188.5 -50t59.5 -148q0 -39 -17 -115l-55 -252q-19 -92 -19 -127q0 -78 50 -119t149 -41l-20 -78q-125 0 -191 -48.5t-90 -157.5l-88 -394q-31 -137 -108.5 -196.5t-213.5 -59.5h-18v86q96 2 138 21t68.5 61.5t43.5 120.5l74 338q27 126 87.5 189.5 t168.5 82.5v5q-72 19 -108 70t-36 112.5t18 138.5l54 258q12 61 12 103q0 82 -72 103q-38 11 -116 11l20 86h21z" />
<glyph unicode="~" d="M1075 729q-111 -113 -230 -113t-257 64.5t-238 64.5q-50 0 -109 -31t-114 -89v94q108 110 233 110q59 0 114 -13.5t157 -57.5q125 -58 219 -58q106 0 225 125v-96z" />
<glyph unicode="&#xa1;" horiz-adv-x="502" d="M432 1030q0 -56 -25 -88.5t-69 -32.5q-66 0 -66 72q0 55 25.5 89t67.5 34q67 0 67 -74zM326 711l-203 -1086h-119l260 1086h62z" />
<glyph unicode="&#xa2;" d="M530 195q-133 26 -206.5 133.5t-73.5 281.5t63 331q64 157 178 253q116 96 257 111l36 178h90l-38 -176q118 -5 217 -43l-29 -90q-108 47 -217 47q-130 0 -233 -76t-162.5 -222t-59.5 -314.5t73.5 -252.5t205 -84t268.5 60v-92q-117 -58 -281 -58l-40 -202h-93z" />
<glyph unicode="&#xa3;" d="M588 1386q113 93 287.5 93t316.5 -78l-39 -84l-54 26q-109 50 -237.5 50t-214.5 -74.5t-117 -220.5l-73 -340h409l-18 -82h-408l-57 -268q-50 -225 -188 -314h759l-20 -94h-938l16 84q95 11 166.5 96.5t106.5 235.5l57 260h-199l17 82h198l76 350q41 185 154 278z" />
<glyph unicode="&#xa5;" d="M1128 1462h117l-559 -823h266l-16 -76h-315l-39 -190h317l-18 -84h-316l-59 -289h-105l64 289h-299l18 84h299l41 190h-301l17 76h258l-215 823h100l201 -817z" />
<glyph unicode="&#xa7;" horiz-adv-x="995" d="M381 84q149 0 228 52.5t79 150.5q0 63 -42.5 106.5t-181.5 101.5t-196 123.5t-57 163t69.5 178.5t198.5 130q-65 31 -104 86t-39 120q0 115 104 189t272.5 74t293.5 -58l-31 -80q-138 54 -262.5 54t-203.5 -46.5t-79 -123.5q0 -59 46 -105q46 -44 169.5 -100.5 t171.5 -95.5q96 -75 96 -195q0 -197 -249 -317q122 -65 122 -197.5t-109 -214.5t-300 -82q-155 0 -275 53v99q48 -28 125.5 -47t153.5 -19zM303 786q0 -56 24 -97q25 -38 81 -73q56 -32 188 -81q108 51 164.5 116t56.5 154q0 72 -58 126.5t-200 106.5q-119 -30 -187.5 -97.5 t-68.5 -154.5z" />
<glyph unicode="&#xa8;" horiz-adv-x="1135" d="M492 1366q0 49 20.5 78t56.5 29q54 0 54 -64q0 -48 -21 -77t-55 -29q-55 0 -55 63zM836 1366q0 49 20.5 78t56.5 29q54 0 54 -64q0 -48 -21 -77t-55 -29q-55 0 -55 63z" />
<glyph unicode="&#xa9;" horiz-adv-x="1704" d="M517 83q-175 103 -272.5 276t-97.5 372.5t100.5 375t275.5 276t375.5 100.5t376 -100.5t276 -275.5t100.5 -374.5t-98 -373t-272.5 -276.5t-381.5 -103t-382 103zM325 1056q-85 -151 -85 -327.5t88 -327.5t240.5 -240t328.5 -89t327 85t243 239.5t92 333.5t-89 331 t-241 241t-331.5 89t-333.5 -92t-239 -243zM944 1092q-142 0 -222.5 -95t-80.5 -264q0 -364 295 -364q86 0 199 43v-88q-103 -45 -209 -45q-187 0 -288 116t-101 326.5t110 335.5t297 125q120 0 227 -52l-36 -83q-99 45 -191 45z" />
<glyph unicode="&#xaa;" horiz-adv-x="643" d="M344 811q-81 0 -127.5 57t-46.5 164q0 189 90 321q91 132 227 132q116 0 164 -115h6l35 103h66l-137 -650h-72l22 125h-4q-96 -137 -223 -137zM369 885q65 0 133.5 76.5t97.5 183.5q16 49 16 115t-36 108.5t-93 42.5q-95 0 -162 -111t-67 -272q0 -143 111 -143z" />
<glyph unicode="&#xab;" horiz-adv-x="860" d="M483 883l-317 -336l213 -385l-64 -39l-254 418l2 26l363 365zM844 883l-314 -336l209 -385l-63 -39l-254 418l2 26l362 365z" />
<glyph unicode="&#xac;" d="M1028 272h-100v400h-803v100h903v-500z" />
<glyph unicode="&#xae;" horiz-adv-x="1704" d="M150 732q0 206 102.5 380t276.5 272.5t373 98.5t374.5 -100.5t276 -275.5t100.5 -374.5t-98 -373t-272.5 -276.5t-380.5 -103t-378 100t-273 273t-101 379zM327 1056q-85 -151 -85 -327.5t88 -327.5t240.5 -240t328.5 -89t327 85t243 239.5t92 333.5t-89 331t-241 241 t-331.5 89t-333.5 -92t-239 -243zM657 1171h211q146 0 223.5 -63t77.5 -190q0 -80 -39.5 -140.5t-109.5 -93.5l237 -393h-120l-211 360h-168v-360h-101v880zM758 731h112q94 0 144.5 46.5t50.5 135.5q0 172 -197 172h-110v-354z" />
<glyph unicode="&#xaf;" horiz-adv-x="655" d="M348 1556l53 97h654l-54 -97h-653z" />
<glyph unicode="&#xb0;" horiz-adv-x="877" d="M327 982q-85 85 -85 207t85 208t207 86t207.5 -86t85.5 -207.5t-85.5 -207t-207.5 -85.5t-207 85zM535 1411q-91 0 -155.5 -65.5t-64.5 -155t64 -153.5t156 -64t155.5 64t63.5 154t-64 155t-155 65z" />
<glyph unicode="&#xb1;" d="M127 629v98h401v406h101v-406h401v-98h-401v-400h-101v400h-401zM127 100h903v-100h-903v100z" />
<glyph unicode="&#xb4;" horiz-adv-x="1135" d="M580 1241v21q68 52 150 142q84 90 130 165h137v-23q-50 -65 -158 -159q-109 -93 -192 -146h-67z" />
<glyph unicode="&#xb6;" horiz-adv-x="1341" d="M1108 -260v1722h-227v-1722h-101v819q-65 -18 -145 -18q-215 0 -317.5 124t-102.5 381.5t109.5 383.5t341.5 126h542v-1816h-100z" />
<glyph unicode="&#xb7;" horiz-adv-x="485" d="M207 698q0 56 25 88.5t69 32.5q66 0 66 -72q0 -54 -25 -88t-67 -34q-68 0 -68 73z" />
<glyph unicode="&#xb8;" horiz-adv-x="420" d="M197 -289q0 -95 -76.5 -149t-216.5 -54q-49 0 -78 7v79q30 -6 72 -6q198 0 198 115q0 97 -151 107l110 190h80l-78 -137q140 -30 140 -152z" />
<glyph unicode="&#xba;" horiz-adv-x="655" d="M348 1423q75 56 175.5 56t160 -64t59.5 -184q0 -175 -90 -299.5t-230 -124.5h-9q-112 0 -168 66t-56 181t41 214q42 99 117 155zM503 1405q-64 0 -119 -47t-84.5 -123.5t-29.5 -161.5v-6q0 -186 156 -186h8q99 0 163.5 101.5t64.5 248.5q0 84 -39.5 129t-114.5 45h-5z " />
<glyph unicode="&#xbb;" horiz-adv-x="860" d="M33 172l313 336l-209 385l64 39l254 -418l-2 -27l-363 -364zM393 172l314 336l-209 385l63 39l254 -418l-2 -27l-362 -364z" />
<glyph unicode="&#xbf;" horiz-adv-x="799" d="M713 1020q0 -56 -25.5 -88.5t-69.5 -32.5q-65 0 -65 72q0 56 25 89.5t67 33.5q68 0 68 -74zM104 -80q0 -107 66 -169t184 -62q142 0 308 100l38 -86q-184 -106 -351 -106t-258 84.5t-91 223.5t71 247t226 219q85 62 133 109t72.5 93t46.5 144h92l-6 -29 q-28 -127 -78.5 -199.5t-161.5 -154.5q-116 -82 -175 -146q-116 -124 -116 -268z" />
<glyph unicode="&#xc0;" horiz-adv-x="1059" d="M815 1579h-66q-49 53 -114 145.5t-99 161.5v21h115q48 -132 164 -303v-25zM6 0h-117l822 1468h67l201 -1468h-105l-69 520h-512zM793 612l-39 291q-32 241 -39 402q-20 -41 -56 -111.5t-315 -581.5h449z" />
<glyph unicode="&#xc1;" horiz-adv-x="1059" d="M668 1579v21q68 52 150 142q84 90 130 165h137v-23q-50 -65 -158 -159q-109 -93 -192 -146h-67zM6 0h-117l822 1468h67l201 -1468h-105l-69 520h-512zM793 612l-39 291q-32 241 -39 402q-20 -41 -56 -111.5t-315 -581.5h449z" />
<glyph unicode="&#xc2;" horiz-adv-x="1059" d="M1007 1579h-49q-68 58 -161 207q-57 -59 -129.5 -118t-120.5 -89h-54v29q68 56 158.5 150t126.5 149h64q22 -65 70.5 -151t94.5 -148v-29zM6 0h-117l822 1468h67l201 -1468h-105l-69 520h-512zM793 612l-39 291q-32 241 -39 402q-20 -41 -56 -111.5t-315 -581.5h449z" />
<glyph unicode="&#xc3;" horiz-adv-x="1059" d="M911 1587q-60 0 -153 64q-33 23 -45.5 31t-38 18t-49.5 10q-46 0 -75 -29t-50 -100h-74q19 109 71.5 167t133.5 58q40 0 72.5 -13.5t118.5 -72.5q52 -36 94.5 -36t71 31t46.5 100h76q-26 -117 -74.5 -172.5t-124.5 -55.5zM6 0h-117l822 1468h67l201 -1468h-105l-69 520 h-512zM793 612l-39 291q-32 241 -39 402q-20 -41 -56 -111.5t-315 -581.5h449z" />
<glyph unicode="&#xc4;" horiz-adv-x="1059" d="M535 1704q0 49 20.5 78t56.5 29q54 0 54 -64q0 -48 -21 -77t-55 -29q-55 0 -55 63zM879 1704q0 49 20.5 78t56.5 29q54 0 54 -64q0 -48 -21 -77t-55 -29q-55 0 -55 63zM6 0h-117l822 1468h67l201 -1468h-105l-69 520h-512zM793 612l-39 291q-32 241 -39 402 q-20 -41 -56 -111.5t-315 -581.5h449z" />
<glyph unicode="&#xc5;" horiz-adv-x="1059" d="M575 1469q-36 49 -36 130t59 137q61 56 150 56t143 -50.5t54 -142t-58 -148.5q-41 -40 -100 -52l192 -1399h-105l-69 520h-512l-287 -520h-117l786 1403q-64 17 -100 66zM653 1685.5q-34 -35.5 -34 -93t33 -90.5t89.5 -33t91 36t34.5 92.5t-33.5 90t-90 33.5t-90.5 -35.5 zM793 612l-39 291q-32 241 -39 402q-20 -41 -56 -111.5t-315 -581.5h449z" />
<glyph unicode="&#xc6;" horiz-adv-x="1640" d="M676 0l110 522h-444l-328 -522h-131l946 1462h883l-20 -94h-625l-117 -553h590l-20 -94h-588l-135 -627h626l-20 -94h-727zM809 627l156 741h-88l-469 -741h401z" />
<glyph unicode="&#xc7;" horiz-adv-x="1169" d="M961 1389q-197 0 -350.5 -103.5t-245 -304.5t-91.5 -434t110.5 -354t317.5 -121q141 0 304 51v-94q-154 -49 -316 -49h-11l-67 -117q140 -30 140 -152q0 -95 -76.5 -149t-216.5 -54q-49 0 -78 7v79q30 -6 72 -6q198 0 198 115q0 97 -151 107l101 175q-187 21 -297 140 q-134 146 -134 410.5t104 487.5q105 223 285.5 341.5t401.5 118.5q176 0 307 -68l-45 -90q-117 64 -262 64z" />
<glyph unicode="&#xc8;" horiz-adv-x="1067" d="M891 1579h-66q-49 53 -114 145.5t-99 161.5v21h115q48 -132 164 -303v-25zM412 1462h727l-21 -94h-624l-117 -553h590l-21 -94h-588l-135 -627h627l-21 -94h-727z" />
<glyph unicode="&#xc9;" horiz-adv-x="1067" d="M654 1579v21q68 52 150 142q84 90 130 165h137v-23q-50 -65 -158 -159q-109 -93 -192 -146h-67zM412 1462h727l-21 -94h-624l-117 -553h590l-21 -94h-588l-135 -627h627l-21 -94h-727z" />
<glyph unicode="&#xca;" horiz-adv-x="1067" d="M1036 1579h-49q-68 58 -161 207q-57 -59 -129.5 -118t-120.5 -89h-54v29q68 56 158.5 150t126.5 149h64q23 -65 71 -151t94 -148v-29zM412 1462h727l-21 -94h-624l-117 -553h590l-21 -94h-588l-135 -627h627l-21 -94h-727z" />
<glyph unicode="&#xcb;" horiz-adv-x="1067" d="M558 1704q0 49 20.5 78t56.5 29q54 0 54 -64q0 -48 -21 -77t-55 -29q-55 0 -55 63zM902 1704q0 49 20.5 78t56.5 29q54 0 54 -64q0 -48 -21 -77t-55 -29q-55 0 -55 63zM412 1462h727l-21 -94h-624l-117 -553h590l-21 -94h-588l-135 -627h627l-21 -94h-727z" />
<glyph unicode="&#xcc;" horiz-adv-x="504" d="M525 1579h-66q-49 53 -114 145.5t-99 161.5v21h115q48 -132 164 -303v-25zM510 1462l-309 -1462h-99l310 1462h98z" />
<glyph unicode="&#xcd;" horiz-adv-x="504" d="M419 1579v21q68 52 150 142q84 90 130 165h137v-23q-50 -65 -158 -159q-109 -93 -192 -146h-67zM510 1462l-309 -1462h-99l310 1462h98z" />
<glyph unicode="&#xce;" horiz-adv-x="504" d="M738 1579h-49q-68 58 -161 207q-57 -59 -129.5 -118t-120.5 -89h-54v29q68 56 158.5 150t126.5 149h64q23 -65 71 -151t94 -148v-29zM510 1462l-309 -1462h-99l310 1462h98z" />
<glyph unicode="&#xcf;" horiz-adv-x="504" d="M260 1704q0 49 20.5 78t56.5 29q54 0 54 -64q0 -48 -21 -77t-55 -29q-55 0 -55 63zM604 1704q0 49 20.5 78t56.5 29q54 0 54 -64q0 -48 -21 -77t-55 -29q-55 0 -55 63zM510 1462l-309 -1462h-99l310 1462h98z" />
<glyph unicode="&#xd1;" horiz-adv-x="1372" d="M1062 1587q-60 0 -153 64q-33 23 -45.5 31t-38 18t-49.5 10q-46 0 -75 -29t-50 -100h-74q19 109 71.5 167t133.5 58q40 0 72.5 -13.5t118.5 -72.5q52 -36 94.5 -36t71 31t46.5 100h76q-26 -117 -74.5 -172.5t-124.5 -55.5zM467 1284h-8q-23 -148 -54.5 -302.5 t-207.5 -981.5h-95l310 1462h80l522 -1294h8q22 171 74 416l188 878h94l-309 -1462h-86z" />
<glyph unicode="&#xd2;" horiz-adv-x="1464" d="M989 1579h-66q-49 53 -114 145.5t-99 161.5v21h115q48 -132 164 -303v-25zM893 1483q247 0 378.5 -148.5t131.5 -414.5t-93.5 -490t-251 -337t-366.5 -113q-250 0 -385 149t-135 421t93 487t255 330.5t373 115.5zM879 1389q-173 0 -309 -101q-134 -101 -214 -298.5 t-80 -416.5q0 -245 109.5 -373t319.5 -128q169 0 300 98q131 99 210 300t79 436.5t-104.5 359t-310.5 123.5z" />
<glyph unicode="&#xd3;" horiz-adv-x="1464" d="M844 1579v21q68 52 150 142q84 90 130 165h137v-23q-50 -65 -158 -159q-109 -93 -192 -146h-67zM893 1483q247 0 378.5 -148.5t131.5 -414.5t-93.5 -490t-251 -337t-366.5 -113q-250 0 -385 149t-135 421t93 487t255 330.5t373 115.5zM879 1389q-173 0 -309 -101 q-134 -101 -214 -298.5t-80 -416.5q0 -245 109.5 -373t319.5 -128q169 0 300 98q131 99 210 300t79 436.5t-104.5 359t-310.5 123.5z" />
<glyph unicode="&#xd4;" horiz-adv-x="1464" d="M1171 1579h-49q-68 58 -161 207q-57 -59 -129.5 -118t-120.5 -89h-54v29q68 56 158.5 150t126.5 149h64q22 -65 70.5 -151t94.5 -148v-29zM893 1483q247 0 378.5 -148.5t131.5 -414.5t-93.5 -490t-251 -337t-366.5 -113q-250 0 -385 149t-135 421t93 487t255 330.5 t373 115.5zM879 1389q-173 0 -309 -101q-134 -101 -214 -298.5t-80 -416.5q0 -245 109.5 -373t319.5 -128q169 0 300 98q131 99 210 300t79 436.5t-104.5 359t-310.5 123.5z" />
<glyph unicode="&#xd5;" horiz-adv-x="1464" d="M1077 1587q-60 0 -153 64q-33 23 -45.5 31t-38 18t-49.5 10q-46 0 -75 -29t-50 -100h-74q19 109 71.5 167t133.5 58q40 0 72.5 -13.5t118.5 -72.5q53 -36 95 -36t70.5 31t46.5 100h76q-26 -117 -74.5 -172.5t-124.5 -55.5zM893 1483q247 0 378.5 -148.5t131.5 -414.5 t-93.5 -490t-251 -337t-366.5 -113q-250 0 -385 149t-135 421t93 487t255 330.5t373 115.5zM879 1389q-173 0 -309 -101q-134 -101 -214 -298.5t-80 -416.5q0 -245 109.5 -373t319.5 -128q169 0 300 98q131 99 210 300t79 436.5t-104.5 359t-310.5 123.5z" />
<glyph unicode="&#xd6;" horiz-adv-x="1464" d="M687 1704q0 49 20.5 78t56.5 29q54 0 54 -64q0 -48 -21 -77t-55 -29q-55 0 -55 63zM1031 1704q0 49 20.5 78t56.5 29q54 0 54 -64q0 -48 -21 -77t-55 -29q-55 0 -55 63zM893 1483q247 0 378.5 -148.5t131.5 -414.5t-93.5 -490t-251 -337t-366.5 -113q-250 0 -385 149 t-135 421t93 487t255 330.5t373 115.5zM879 1389q-173 0 -309 -101q-134 -101 -214 -298.5t-80 -416.5q0 -245 109.5 -373t319.5 -128q169 0 300 98q131 99 210 300t79 436.5t-104.5 359t-310.5 123.5z" />
<glyph unicode="&#xd8;" horiz-adv-x="1464" d="M1403 911q0 -189 -52.5 -367t-144.5 -303q-191 -261 -514 -261q-215 0 -348 112l-139 -170l-66 64l146 172q-113 149 -113 407t93.5 473.5t256 330t376.5 114.5t347 -121l133 168l70 -53l-145 -183q45 -51 72.5 -160t27.5 -223zM879 1389q-270 0 -433 -230 q-77 -108 -123.5 -265.5t-46.5 -320.5q0 -214 78 -329l826 1032q-107 113 -301 113zM412 172q106 -100 285 -100t310 100.5t208 295.5q79 195 79 433q0 85 -17 171t-44 130z" />
<glyph unicode="&#xd9;" horiz-adv-x="1370" d="M946 1579h-66q-50 53 -114.5 145.5t-98.5 161.5v21h115q48 -132 164 -303v-25zM616 -20q-440 0 -440 401q0 83 27 201l186 880h103l-193 -899q-20 -91 -20 -184q0 -309 342 -309q195 0 307.5 97t158.5 318l207 977h101l-207 -977q-59 -270 -197 -388q-139 -117 -375 -117 z" />
<glyph unicode="&#xda;" horiz-adv-x="1370" d="M838 1579v21q68 52 150 142q84 90 130 165h137v-23q-50 -65 -158 -159q-109 -93 -192 -146h-67zM616 -20q-440 0 -440 401q0 83 27 201l186 880h103l-193 -899q-20 -91 -20 -184q0 -309 342 -309q195 0 307.5 97t158.5 318l207 977h101l-207 -977q-59 -270 -197 -388 q-139 -117 -375 -117z" />
<glyph unicode="&#xdb;" horiz-adv-x="1370" d="M1148 1579h-49q-68 58 -161 207q-57 -59 -129.5 -118t-120.5 -89h-54v29q68 56 158.5 150t126.5 149h64q23 -65 71 -151t94 -148v-29zM616 -20q-440 0 -440 401q0 83 27 201l186 880h103l-193 -899q-20 -91 -20 -184q0 -309 342 -309q195 0 307.5 97t158.5 318l207 977 h101l-207 -977q-59 -270 -197 -388q-139 -117 -375 -117z" />
<glyph unicode="&#xdc;" horiz-adv-x="1370" d="M678 1704q0 49 20.5 78t56.5 29q54 0 54 -64q0 -48 -21 -77t-55 -29q-55 0 -55 63zM1022 1704q0 49 20.5 78t56.5 29q54 0 54 -64q0 -48 -21 -77t-55 -29q-55 0 -55 63zM616 -20q-440 0 -440 401q0 83 27 201l186 880h103l-193 -899q-20 -91 -20 -184q0 -309 342 -309 q195 0 307.5 97t158.5 318l207 977h101l-207 -977q-59 -270 -197 -388q-139 -117 -375 -117z" />
<glyph unicode="&#xdf;" horiz-adv-x="1094" d="M-162 -492q-71 0 -119 23v90q53 -24 122.5 -24t114.5 49.5t67 154.5l305 1409q80 357 405 357q138 0 215.5 -61.5t77.5 -174.5q0 -75 -44.5 -140.5t-166.5 -148.5q-110 -79 -143 -125.5t-33 -100t31 -90.5t96 -79q96 -63 138 -133t42 -166q0 -170 -107 -269t-286 -99 q-142 0 -234 65v109q46 -37 113.5 -59.5t128.5 -22.5q131 0 208 71t77 195q0 76 -32 129.5t-112.5 110t-116.5 109t-36 115t21 108.5t60.5 89t137.5 113q103 72 131 116q31 46 31 101q0 70 -55 110t-150 40q-128 0 -204 -75.5t-109 -229.5l-291 -1377q-32 -150 -102 -219.5 t-181 -69.5z" />
<glyph unicode="&#xe0;" horiz-adv-x="1133" d="M809 1241h-66q-49 53 -114 145.5t-99 161.5v21h115q48 -132 164 -303v-25zM383 -20q-281 0 -281 374q0 197 75 375.5t200 276.5q127 98 278 98q233 0 279 -219h6l59 202h80l-229 -1087h-82l45 274h-6q-87 -146 -190 -220t-234 -74zM205 365q0 -295 194 -295 q95 0 183 61.5t159 165.5t108.5 229.5t37.5 214.5q0 123 -60 200t-177 77t-216.5 -81.5t-164 -245t-64.5 -326.5z" />
<glyph unicode="&#xe1;" horiz-adv-x="1133" d="M586 1241v21q68 52 150 142q84 90 130 165h137v-23q-50 -65 -158 -159q-109 -93 -192 -146h-67zM383 -20q-281 0 -281 374q0 197 75 375.5t200 276.5q127 98 278 98q233 0 279 -219h6l59 202h80l-229 -1087h-82l45 274h-6q-87 -146 -190 -220t-234 -74zM205 365 q0 -295 194 -295q95 0 183 61.5t159 165.5t108.5 229.5t37.5 214.5q0 123 -60 200t-177 77t-216.5 -81.5t-164 -245t-64.5 -326.5z" />
<glyph unicode="&#xe2;" horiz-adv-x="1133" d="M955 1243h-49q-68 58 -161 207q-57 -59 -129.5 -118t-120.5 -89h-54v29q68 56 158.5 150t126.5 149h64q22 -65 70.5 -151t94.5 -148v-29zM383 -20q-281 0 -281 374q0 197 75 375.5t200 276.5q127 98 278 98q233 0 279 -219h6l59 202h80l-229 -1087h-82l45 274h-6 q-87 -146 -190 -220t-234 -74zM205 365q0 -295 194 -295q95 0 183 61.5t159 165.5t108.5 229.5t37.5 214.5q0 123 -60 200t-177 77t-216.5 -81.5t-164 -245t-64.5 -326.5z" />
<glyph unicode="&#xe3;" horiz-adv-x="1133" d="M858 1249q-60 0 -153 64q-33 23 -45.5 31t-38 18t-49.5 10q-46 0 -75 -29t-50 -100h-74q19 109 71.5 167t133.5 58q40 0 72.5 -13.5t118.5 -72.5q53 -36 95 -36t70.5 31t46.5 100h76q-26 -117 -74.5 -172.5t-124.5 -55.5zM383 -20q-281 0 -281 374q0 197 75 375.5 t200 276.5q127 98 278 98q233 0 279 -219h6l59 202h80l-229 -1087h-82l45 274h-6q-87 -146 -190 -220t-234 -74zM205 365q0 -295 194 -295q95 0 183 61.5t159 165.5t108.5 229.5t37.5 214.5q0 123 -60 200t-177 77t-216.5 -81.5t-164 -245t-64.5 -326.5z" />
<glyph unicode="&#xe4;" horiz-adv-x="1133" d="M491 1366q0 49 20.5 78t56.5 29q54 0 54 -64q0 -48 -21 -77t-55 -29q-55 0 -55 63zM835 1366q0 49 20.5 78t56.5 29q54 0 54 -64q0 -48 -21 -77t-55 -29q-55 0 -55 63zM383 -20q-281 0 -281 374q0 197 75 375.5t200 276.5q127 98 278 98q233 0 279 -219h6l59 202h80 l-229 -1087h-82l45 274h-6q-87 -146 -190 -220t-234 -74zM205 365q0 -295 194 -295q95 0 183 61.5t159 165.5t108.5 229.5t37.5 214.5q0 123 -60 200t-177 77t-216.5 -81.5t-164 -245t-64.5 -326.5z" />
<glyph unicode="&#xe5;" horiz-adv-x="1133" d="M873 1589.5q54 -50.5 54 -142t-58 -148t-148.5 -56.5t-145 52.5t-54.5 142.5t59 146q61 56 150 56t143 -50.5zM814.5 1353q34.5 36 34.5 92.5t-33.5 90t-90 33.5t-90.5 -35.5t-34 -93t33 -90.5t89.5 -33t91 36zM383 -20q-281 0 -281 374q0 197 75 375.5t200 276.5 q127 98 278 98q233 0 279 -219h6l59 202h80l-229 -1087h-82l45 274h-6q-87 -146 -190 -220t-234 -74zM205 365q0 -295 194 -295q95 0 183 61.5t159 165.5t108.5 229.5t37.5 214.5q0 123 -60 200t-177 77t-216.5 -81.5t-164 -245t-64.5 -326.5z" />
<glyph unicode="&#xe6;" horiz-adv-x="1602" d="M1442 49q-151 -69 -280.5 -69t-217.5 60t-117 165l-39 -205h-77l41 254h-9q-94 -142 -189 -208t-211.5 -66t-178.5 93.5t-62 285.5t70.5 370t192 276.5t274.5 98.5q104 0 164.5 -55.5t75.5 -157.5h10l59 192h66l-35 -186q139 207 350 207q112 0 175 -61.5t63 -172.5 q0 -180 -159 -272t-470 -92h-39q-8 -54 -8 -96q0 -165 71 -252.5t216 -87.5q107 0 264 73v-94zM369 70q67 0 138.5 42t133.5 117t106.5 171.5t64 200.5t19.5 163q0 119 -49.5 186.5t-140.5 67.5q-122 0 -222.5 -85.5t-157 -241t-56.5 -339.5q0 -282 164 -282zM961 594 q261 0 382 66.5t121 203.5q0 72 -39 113t-108 41q-119 0 -232.5 -116.5t-171.5 -307.5h48z" />
<glyph unicode="&#xe7;" horiz-adv-x="887" d="M877 971q-108 47 -227.5 47t-223.5 -77t-162.5 -223t-58.5 -311.5t73.5 -251t209 -85.5t262.5 59v-92q-106 -53 -249 -57l-67 -117q140 -30 140 -152q0 -95 -76.5 -149t-216.5 -54q-49 0 -78 7v79q30 -6 72 -6q198 0 198 115q0 97 -151 107l100 173q-136 15 -220 107 q-100 110 -100 305.5t73.5 363.5t198.5 256.5t290 88.5q136 0 241 -43z" />
<glyph unicode="&#xe8;" horiz-adv-x="928" d="M751 1241h-66q-49 53 -114 145.5t-99 161.5v21h115q48 -132 164 -303v-25zM768 49q-140 -69 -306 -69t-263 109t-97 297t71 355t195.5 265t274.5 98q115 0 182.5 -61.5t67.5 -165.5q0 -182 -164.5 -276.5t-484.5 -94.5h-33q-6 -43 -6 -98q0 -165 74 -251.5t210 -86.5 t279 73v-94zM274 594q517 0 517 270q0 68 -44 111t-116 43q-131 0 -244 -116t-162 -308h49z" />
<glyph unicode="&#xe9;" horiz-adv-x="928" d="M532 1241v21q68 52 150 142q84 90 130 165h137v-23q-50 -65 -158 -159q-109 -93 -192 -146h-67zM768 49q-140 -69 -306 -69t-263 109t-97 297t71 355t195.5 265t274.5 98q115 0 182.5 -61.5t67.5 -165.5q0 -182 -164.5 -276.5t-484.5 -94.5h-33q-6 -43 -6 -98 q0 -165 74 -251.5t210 -86.5t279 73v-94zM274 594q517 0 517 270q0 68 -44 111t-116 43q-131 0 -244 -116t-162 -308h49z" />
<glyph unicode="&#xea;" horiz-adv-x="928" d="M904 1241h-49q-68 58 -161 207q-57 -59 -129.5 -118t-120.5 -89h-54v29q68 56 158.5 150t126.5 149h64q23 -65 71 -151t94 -148v-29zM768 49q-140 -69 -306 -69t-263 109t-97 297t71 355t195.5 265t274.5 98q115 0 182.5 -61.5t67.5 -165.5q0 -182 -164.5 -276.5 t-484.5 -94.5h-33q-6 -43 -6 -98q0 -165 74 -251.5t210 -86.5t279 73v-94zM274 594q517 0 517 270q0 68 -44 111t-116 43q-131 0 -244 -116t-162 -308h49z" />
<glyph unicode="&#xeb;" horiz-adv-x="928" d="M436 1366q0 49 20.5 78t56.5 29q54 0 54 -64q0 -48 -21 -77t-55 -29q-55 0 -55 63zM780 1366q0 49 20.5 78t56.5 29q54 0 54 -64q0 -48 -21 -77t-55 -29q-55 0 -55 63zM768 49q-140 -69 -306 -69t-263 109t-97 297t71 355t195.5 265t274.5 98q115 0 182.5 -61.5 t67.5 -165.5q0 -182 -164.5 -276.5t-484.5 -94.5h-33q-6 -43 -6 -98q0 -165 74 -251.5t210 -86.5t279 73v-94zM274 594q517 0 517 270q0 68 -44 111t-116 43q-131 0 -244 -116t-162 -308h49z" />
<glyph unicode="&#xec;" horiz-adv-x="475" d="M454 1241h-66q-50 53 -114.5 145.5t-98.5 161.5v21h115q48 -132 164 -303v-25zM76 0l231 1087h96l-229 -1087h-98z" />
<glyph unicode="&#xed;" horiz-adv-x="475" d="M284 1241v21q68 52 150 142q84 90 130 165h137v-23q-50 -65 -158 -159q-109 -93 -192 -146h-67zM307 1087h96l-229 -1087h-98z" />
<glyph unicode="&#xee;" horiz-adv-x="475" d="M642 1241h-49q-68 58 -161 207q-57 -59 -129.5 -118t-120.5 -89h-54v29q68 56 158.5 150t126.5 149h64q23 -65 71 -151t94 -148v-29zM307 1087h96l-229 -1087h-98z" />
<glyph unicode="&#xef;" horiz-adv-x="475" d="M171 1366q0 49 20.5 78t56.5 29q54 0 54 -64q0 -48 -21 -77t-55 -29q-55 0 -55 63zM515 1366q0 49 20.5 78t56.5 29q54 0 54 -64q0 -48 -21 -77t-55 -29q-55 0 -55 63zM307 1087h96l-229 -1087h-98z" />
<glyph unicode="&#xf1;" horiz-adv-x="1143" d="M874 1249q-60 0 -153 64q-33 23 -45.5 31t-38 18t-49.5 10q-46 0 -75 -29t-50 -100h-74q19 109 71.5 167t133.5 58q40 0 72.5 -13.5t118.5 -72.5q52 -36 94.5 -36t71 31t46.5 100h76q-26 -117 -74.5 -172.5t-124.5 -55.5zM913 692q21 92 21 165t-44.5 117t-133.5 44 q-113 0 -211 -67q-195 -132 -269 -474l-102 -477h-98l231 1087h82l-37 -221h6q163 238 416 238q129 0 194.5 -63.5t65.5 -184.5q0 -70 -24 -182l-148 -674h-98z" />
<glyph unicode="&#xf2;" horiz-adv-x="1124" d="M744 1241h-66q-50 53 -114.5 145.5t-98.5 161.5v21h115q48 -132 164 -303v-25zM649 1108q181 0 278 -109q99 -108 99 -301.5t-71.5 -365.5t-195.5 -262t-286 -90q-183 0 -279 109t-96 308t73 365t197 256t281 90zM851 939q-73 83 -204 83t-230 -79t-157.5 -225.5 t-58.5 -309.5q0 -342 282 -342q127 0 225 77t157 229t59 318t-73 249z" />
<glyph unicode="&#xf3;" horiz-adv-x="1124" d="M573 1241v21q68 52 150 142q84 90 130 165h137v-23q-50 -65 -158 -159q-109 -93 -192 -146h-67zM649 1108q181 0 278 -109q99 -108 99 -301.5t-71.5 -365.5t-195.5 -262t-286 -90q-183 0 -279 109t-96 308t73 365t197 256t281 90zM851 939q-73 83 -204 83t-230 -79 t-157.5 -225.5t-58.5 -309.5q0 -342 282 -342q127 0 225 77t157 229t59 318t-73 249z" />
<glyph unicode="&#xf4;" horiz-adv-x="1124" d="M941 1241h-49q-68 58 -161 207q-57 -59 -129.5 -118t-120.5 -89h-54v29q68 56 158.5 150t126.5 149h64q22 -65 70.5 -151t94.5 -148v-29zM649 1108q181 0 278 -109q99 -108 99 -301.5t-71.5 -365.5t-195.5 -262t-286 -90q-183 0 -279 109t-96 308t73 365t197 256t281 90z M851 939q-73 83 -204 83t-230 -79t-157.5 -225.5t-58.5 -309.5q0 -342 282 -342q127 0 225 77t157 229t59 318t-73 249z" />
<glyph unicode="&#xf5;" horiz-adv-x="1124" d="M839 1249q-60 0 -153 64q-33 23 -45.5 31t-38 18t-49.5 10q-46 0 -75 -29t-50 -100h-74q19 109 71.5 167t133.5 58q40 0 72.5 -13.5t118.5 -72.5q52 -36 94.5 -36t71 31t46.5 100h76q-26 -117 -74.5 -172.5t-124.5 -55.5zM649 1108q181 0 278 -109q99 -108 99 -301.5 t-71.5 -365.5t-195.5 -262t-286 -90q-183 0 -279 109t-96 308t73 365t197 256t281 90zM851 939q-73 83 -204 83t-230 -79t-157.5 -225.5t-58.5 -309.5q0 -342 282 -342q127 0 225 77t157 229t59 318t-73 249z" />
<glyph unicode="&#xf6;" horiz-adv-x="1124" d="M468 1366q0 49 20.5 78t56.5 29q54 0 54 -64q0 -48 -21 -77t-55 -29q-55 0 -55 63zM812 1366q0 49 20.5 78t56.5 29q54 0 54 -64q0 -48 -21 -77t-55 -29q-55 0 -55 63zM649 1108q181 0 278 -109q99 -108 99 -301.5t-71.5 -365.5t-195.5 -262t-286 -90q-183 0 -279 109 t-96 308t73 365t197 256t281 90zM851 939q-73 83 -204 83t-230 -79t-157.5 -225.5t-58.5 -309.5q0 -342 282 -342q127 0 225 77t157 229t59 318t-73 249z" />
<glyph unicode="&#xf7;" d="M618 965q-96 0 -96 106.5t96 106.5q46 0 72.5 -28t26.5 -80.5t-27.5 -78.5t-71.5 -26zM168 772h903v-100h-903v100zM618 266q-96 0 -96 106.5t96 106.5q48 0 73.5 -27.5t25.5 -80t-27.5 -79t-71.5 -26.5z" />
<glyph unicode="&#xf8;" horiz-adv-x="1124" d="M164 127q-66 107 -66 288t73 347t197 256t277.5 90t253.5 -82l109 133l65 -53l-117 -143q70 -104 70 -263q0 -196 -71.5 -368t-195.5 -262t-286 -90t-254 83l-110 -135l-64 54zM838 950q-74 72 -198 72t-223 -79t-157.5 -225.5t-58.5 -309.5q0 -124 32 -197zM281 139 q67 -73 198 -73t229 77t157 229t59 330q0 100 -35 179z" />
<glyph unicode="&#xf9;" horiz-adv-x="1143" d="M774 1241h-66q-50 53 -114.5 145.5t-98.5 161.5v21h115q48 -132 164 -303v-25zM207 231q0 -75 48 -118t138 -43h9q159 0 288 146.5t174 385.5l105 485h98l-231 -1087h-80l28 205h-6q-167 -221 -403 -221q-131 0 -198.5 62t-67.5 181q0 63 22 170l150 690h100l-152 -698 q-22 -104 -22 -158z" />
<glyph unicode="&#xfa;" horiz-adv-x="1143" d="M627 1241v21q68 52 150 142q84 90 130 165h137v-23q-50 -65 -158 -159q-109 -93 -192 -146h-67zM207 231q0 -75 48 -118t138 -43h9q159 0 288 146.5t174 385.5l105 485h98l-231 -1087h-80l28 205h-6q-167 -221 -403 -221q-131 0 -198.5 62t-67.5 181q0 63 22 170l150 690 h100l-152 -698q-22 -104 -22 -158z" />
<glyph unicode="&#xfb;" horiz-adv-x="1143" d="M957 1241h-49q-68 58 -161 207q-57 -59 -129.5 -118t-120.5 -89h-54v29q68 56 158.5 150t126.5 149h64q22 -65 70.5 -151t94.5 -148v-29zM207 231q0 -75 48 -118t138 -43h9q159 0 288 146.5t174 385.5l105 485h98l-231 -1087h-80l28 205h-6q-167 -221 -403 -221 q-131 0 -198.5 62t-67.5 181q0 63 22 170l150 690h100l-152 -698q-22 -104 -22 -158z" />
<glyph unicode="&#xfc;" horiz-adv-x="1143" d="M483 1366q0 49 20.5 78t56.5 29q54 0 54 -64q0 -48 -21 -77t-55 -29q-55 0 -55 63zM827 1366q0 49 20.5 78t56.5 29q54 0 54 -64q0 -48 -21 -77t-55 -29q-55 0 -55 63zM207 231q0 -75 48 -118t138 -43h9q159 0 288 146.5t174 385.5l105 485h98l-231 -1087h-80l28 205h-6 q-167 -221 -403 -221q-131 0 -198.5 62t-67.5 181q0 63 22 170l150 690h100l-152 -698q-22 -104 -22 -158z" />
<glyph unicode="&#xff;" horiz-adv-x="920" d="M354 1366q0 49 20.5 78t56.5 29q54 0 54 -64q0 -48 -21 -77t-55 -29q-55 0 -55 63zM698 1366q0 49 20.5 78t56.5 29q54 0 54 -64q0 -48 -21 -77t-55 -29q-55 0 -55 63zM-88 -492q-68 0 -129 21v92q71 -27 143 -27q155 0 271 214l100 184l-174 1095h100l82 -548 q50 -346 55 -449h11q43 103 186 367l348 630h103l-713 -1290q-71 -126 -123 -178q-109 -111 -260 -111z" />
<glyph unicode="&#x131;" horiz-adv-x="475" d="M76 0l231 1087h96l-229 -1087h-98z" />
<glyph unicode="&#x152;" horiz-adv-x="1767" d="M692 -20q-251 0 -386 149q-134 151 -134 422t95.5 489t261 330.5t382.5 112.5q131 0 240 -21h688l-20 -94h-625l-117 -553h590l-20 -94h-588l-135 -627h626l-20 -94h-666q-20 -5 -73.5 -12.5t-98.5 -7.5zM903 1389q-183 0 -322 -99q-139 -97 -222 -293t-83 -432.5 t109 -364.5t320 -128q68 0 116 12l271 1290q-110 15 -189 15z" />
<glyph unicode="&#x153;" horiz-adv-x="1720" d="M1561 49q-139 -69 -287 -69t-240.5 69.5t-124.5 200.5q-66 -128 -180 -199t-256 -71q-183 0 -279 109t-96 308t73 365t197 256t273.5 90t245 -75t125.5 -212q71 133 182.5 208t234 75t190 -61.5t67.5 -165.5q0 -182 -164 -276.5t-486 -94.5h-32q-7 -35 -7 -98 q0 -165 74 -251.5t210.5 -86.5t279.5 73v-94zM851 939q-73 83 -204 83t-230 -79t-157.5 -225.5t-58.5 -309.5q0 -342 282 -342q127 0 225 77t157 229t59 318t-73 249zM1067 594q516 0 516 270q0 69 -44 111.5t-116 42.5q-131 0 -243 -115t-162 -309h49z" />
<glyph unicode="&#x178;" horiz-adv-x="965" d="M454 1704q0 49 20.5 78t56.5 29q54 0 54 -64q0 -48 -21 -77t-55 -29q-55 0 -55 63zM798 1704q0 49 20.5 78t56.5 29q54 0 54 -64q0 -48 -21 -77t-55 -29q-55 0 -55 63zM1155 1462l-631 -932l-108 -530h-105l119 545l-237 917h100l201 -817l544 817h117z" />
<glyph unicode="&#x192;" d="M104 -492q-49 0 -102 19v90q51 -16 100 -16q87 0 133.5 52.5t75.5 186.5l215 1018h-204l14 68l205 14l47 223q35 168 116.5 244t227.5 76q74 0 166 -31l-25 -80q-87 27 -147 27q-97 0 -154 -54t-84 -178l-47 -227h248l-17 -82h-247l-222 -1042q-35 -166 -106 -236 q-70 -72 -193 -72z" />
<glyph unicode="&#x2c6;" horiz-adv-x="1135" d="M958 1241h-49q-68 58 -161 207q-57 -59 -129.5 -118t-120.5 -89h-54v29q68 56 158.5 150t126.5 149h64q23 -65 71 -151t94 -148v-29z" />
<glyph unicode="&#x2c7;" horiz-adv-x="1135" d="M514 1569h49q72 -61 162 -207q59 61 125 114q73 61 125 93h53v-29q-72 -59 -157.5 -148.5t-127.5 -150.5h-63q-28 72 -75 155.5t-91 143.5v29z" />
<glyph unicode="&#x2d8;" horiz-adv-x="1135" d="M1008 1481q-57 -234 -286 -234q-112 0 -170 50.5t-58 142.5v21l2 20h69q0 -70 37 -104t122.5 -34t136.5 31.5t75 106.5h72z" />
<glyph unicode="&#x2d9;" horiz-adv-x="440" d="M326 1366q0 57 21.5 89t60.5 32q57 0 57 -72q0 -57 -22 -90t-58 -33q-59 0 -59 74z" />
<glyph unicode="&#x2da;" horiz-adv-x="1182" d="M913 1589.5q54 -50.5 54 -142t-58 -148t-148.5 -56.5t-145 52.5t-54.5 142.5t59 146q61 56 150 56t143 -50.5zM854.5 1353q34.5 36 34.5 92.5t-33.5 90t-90 33.5t-90.5 -35.5t-34 -93t33 -90.5t89.5 -33t91 36z" />
<glyph unicode="&#x2db;" horiz-adv-x="348" d="M-43 -256q0 -82 88 -82q35 0 76 10v-71q-41 -15 -107 -15t-107.5 38t-41.5 107t48 133.5t169 135.5h72l-75 -60q-122 -95 -122 -196z" />
<glyph unicode="&#x2dc;" horiz-adv-x="1135" d="M831 1249q-60 0 -153 64q-33 23 -45.5 31t-38 18t-49.5 10q-46 0 -75 -29t-50 -100h-74q19 109 71.5 167t133.5 58q40 0 72.5 -13.5t118.5 -72.5q52 -36 94.5 -36t71 31t46.5 100h76q-26 -117 -74.5 -172.5t-124.5 -55.5z" />
<glyph unicode="&#x2dd;" horiz-adv-x="1135" d="M461 1241v29q45 47 109 128.5t118 170.5h103v-23q-55 -74 -145 -171q-86 -90 -146 -134h-39zM774 1241v29q43 47 108 130t119 169h103v-23q-60 -80 -147 -172q-91 -94 -146 -133h-37z" />
<glyph unicode="&#x5b0;" horiz-adv-x="0" d="M670 -80q51 0 51 -49q0 -12 -3 -27q-17 -74 -80 -74q-49 0 -49 46q0 12 4 28q16 76 77 76zM614 -343q52 0 52 -48q0 -12 -4 -28q-16 -75 -80 -75q-49 0 -49 46q0 13 4 29q17 76 77 76z" />
<glyph unicode="&#x5b1;" horiz-adv-x="0" d="M428 -80q50 0 50 -48q0 -13 -3 -28q-17 -74 -79 -74q-49 0 -49 46q0 12 4 28q16 76 77 76zM715 -80q50 0 50 -48q0 -13 -3 -28q-17 -74 -79 -74q-49 0 -49 46q0 12 4 28q16 76 77 76zM969 -80q51 0 51 -49q0 -12 -3 -27q-17 -74 -80 -74q-48 0 -48 45q0 13 4 29 q16 76 76 76zM514 -343q52 0 52 -48q0 -12 -4 -28q-16 -75 -80 -75q-49 0 -49 46q0 13 4 29q17 76 77 76zM913 -343q52 0 52 -48q0 -12 -4 -28q-16 -75 -80 -75q-48 0 -48 46q0 13 4 29q17 76 76 76z" />
<glyph unicode="&#x5b2;" horiz-adv-x="0" d="M910 -80q51 0 51 -49q0 -12 -3 -27q-17 -74 -80 -74q-49 0 -49 46q0 12 4 28q16 76 77 76zM734 -190h-356l15 71h356zM854 -343q52 0 52 -48q0 -12 -4 -28q-17 -75 -80 -75q-49 0 -49 46q0 13 4 29q17 76 77 76z" />
<glyph unicode="&#x5b3;" horiz-adv-x="0" d="M910 -80q51 0 51 -49q0 -12 -3 -27q-17 -74 -80 -74q-49 0 -49 46q0 12 4 28q16 76 77 76zM734 -190h-142l-43 -202h-72l43 202h-142l15 71h356zM854 -343q52 0 52 -48q0 -12 -4 -28q-17 -75 -80 -75q-49 0 -49 46q0 13 4 29q17 76 77 76z" />
<glyph unicode="&#x5b4;" horiz-adv-x="0" d="M642 -80q51 0 51 -49q0 -12 -3 -27q-17 -74 -80 -74q-49 0 -49 46q0 12 4 28q16 76 77 76z" />
<glyph unicode="&#x5b5;" horiz-adv-x="0" d="M499 -80q50 0 50 -48q0 -13 -3 -28q-17 -74 -79 -74q-49 0 -49 46q0 12 4 28q16 76 77 76zM786 -80q50 0 50 -48q0 -13 -3 -28q-17 -74 -79 -74q-49 0 -49 46q0 12 4 28q16 76 77 76z" />
<glyph unicode="&#x5b6;" horiz-adv-x="0" d="M528 -80q50 0 50 -48q0 -13 -3 -28q-17 -74 -79 -74q-49 0 -49 46q0 12 4 28q16 76 77 76zM815 -80q50 0 50 -48q0 -13 -3 -28q-17 -74 -79 -74q-49 0 -49 46q0 12 4 28q16 76 77 76zM614 -343q52 0 52 -48q0 -12 -4 -28q-16 -75 -80 -75q-49 0 -49 46q0 13 4 29 q17 76 77 76z" />
<glyph unicode="&#x5b7;" horiz-adv-x="0" d="M797 -183h-357l16 72h357z" />
<glyph unicode="&#x5b8;" horiz-adv-x="0" d="M819 -183h-143l-43 -201h-71l43 201h-143l15 72h357z" />
<glyph unicode="&#x5b9;" horiz-adv-x="0" d="M642 1360q51 0 51 -49q0 -12 -3 -27q-17 -74 -80 -74q-49 0 -49 46q0 12 4 28q16 76 77 76z" />
<glyph unicode="&#x5ba;" horiz-adv-x="0" d="M599 1360q51 0 51 -49q0 -12 -3 -27q-17 -74 -80 -74q-48 0 -48 45q0 13 4 29q16 76 76 76z" />
<glyph unicode="&#x5bb;" horiz-adv-x="0" d="M528 -80q50 0 50 -48q0 -13 -3 -28q-17 -74 -79 -74q-49 0 -49 46q0 12 4 28q16 76 77 76zM642 -211q52 0 52 -48q0 -12 -4 -28q-16 -75 -80 -75q-49 0 -49 46q0 13 4 29q17 76 77 76zM759 -343q51 0 51 -47q0 -13 -4 -29q-16 -75 -79 -75q-48 0 -48 47q0 12 3 28 q17 76 77 76z" />
<glyph unicode="&#x5bc;" horiz-adv-x="0" d="M642 639q51 0 51 -49q0 -12 -3 -27q-17 -74 -80 -74q-49 0 -49 46q0 12 4 28q16 76 77 76z" />
<glyph unicode="&#x5bd;" horiz-adv-x="1256" d="M639 -443h-89l66 306h89z" />
<glyph unicode="&#x5be;" horiz-adv-x="614" d="M678 1200h-459l18 90h457z" />
<glyph unicode="&#x5c1;" horiz-adv-x="0" d="M595 1360q51 0 51 -49q0 -12 -3 -27q-17 -74 -80 -74q-49 0 -49 46q0 12 4 28q16 76 77 76z" />
<glyph unicode="&#x5c2;" horiz-adv-x="0" d="M642 1360q51 0 51 -49q0 -12 -3 -27q-17 -74 -80 -74q-49 0 -49 46q0 12 4 28q16 76 77 76z" />
<glyph unicode="&#x5c7;" horiz-adv-x="0" d="M379 -129h-108l-25 -117h-71l25 117h-108l15 72h287z" />
<glyph unicode="&#x5d0;" horiz-adv-x="1141" d="M1150 1290l-100 -472q-11 -53 -24 -95.5t-39 -95t-59 -91.5t-85.5 -73t-117.5 -50l162 -413h-110l-313 799q-45 0 -94 -25q-80 -41 -127 -119t-75 -207l-95 -448h-98l95 449q12 55 26 101.5t42.5 105t65.5 101.5t95.5 78.5t131.5 48.5l-160 406h109l312 -793q34 6 63 20 q82 40 126 107.5t71 194.5l100 471h98z" />
<glyph unicode="&#x5d1;" horiz-adv-x="1016" d="M209 1300q158 10 245 10t130 -3.5t85.5 -11t76 -21.5t63 -33.5t48.5 -47.5t30.5 -63t11.5 -82t-12 -102l-183 -858h151l-18 -88h-903l18 88h650l183 858q10 47 10 82.5t-9 62t-23.5 47.5t-38 35t-49.5 23.5t-61 14.5q-62 9 -151.5 9t-272.5 -11z" />
<glyph unicode="&#x5d2;" horiz-adv-x="770" d="M537 1310q127 0 169 -80q24 -46 24 -102.5t-12 -112.5l-216 -1015h-87l35 213h-7q-68 -85 -112 -121q-114 -96 -260 -96q-58 0 -128 11l38 94q52 -13 119 -13q137 0 252.5 115.5t156.5 307.5l107 504q12 62 12 105.5t-28.5 71.5t-89 28t-152.5 -17l19 92q80 15 160 15z " />
<glyph unicode="&#x5d3;" horiz-adv-x="989" d="M1086 1290l-16 -77q-49 -16 -85 -34t-77 -50q-83 -65 -113 -201l-197 -928h-102l197 928q13 59 38 109t52 79q55 59 93 78l16 8h-729l19 88h904z" />
<glyph unicode="&#x5d4;" horiz-adv-x="1256" d="M317 1290q296 20 390.5 20t137.5 -3.5t85.5 -11t76 -21.5t63 -33.5t48.5 -47.5t30.5 -63t11.5 -82t-12 -102l-201 -946h-103l201 946q10 47 10 82.5t-8.5 62t-23 47.5t-38 35t-49.5 23.5t-60 14.5q-63 9 -172.5 9t-406.5 -22zM145 0h-102l173 813h102z" />
<glyph unicode="&#x5d5;" horiz-adv-x="466" d="M147 0h-102l274 1290h102z" />
<glyph unicode="&#x5d6;" horiz-adv-x="466" d="M572 1290l-16 -77q-71 -48 -139.5 -156t-97.5 -242l-173 -815h-102l173 815q17 79 49 150t68 119q66 84 110 118h-289l19 88h398z" />
<glyph unicode="&#x5d7;" horiz-adv-x="1256" d="M579.5 1306q85.5 4 154 4t111.5 -3.5t85.5 -11t76 -21.5t63 -33.5t48.5 -47.5t30.5 -63t11.5 -82t-12 -102l-201 -946h-103l201 946q10 47 10 82.5t-8.5 62t-23 47.5t-38 35t-49.5 23.5t-60 14.5q-63 9 -172.5 9t-302.5 -15l-256 -1205h-102l274 1290q8 0 92.5 6t170 10z " />
<glyph unicode="&#x5d8;" horiz-adv-x="1258" d="M796 1310q230 0 322 -163q53 -92 53 -239q0 -115 -32 -263q-72 -339 -233.5 -502t-392 -163t-323.5 163q-52 92 -52 239q0 115 32 263l137 645h103l-137 -645q-32 -148 -32 -248q0 -140 51 -219q32 -50 92.5 -79t147.5 -29t159.5 29t125 78.5t94.5 124t70 157.5t50 186 q32 149 32 250q0 140 -49 217q-31 50 -91 79t-147 29q-46 0 -94 -10l20 92q48 8 94 8z" />
<glyph unicode="&#x5d9;" horiz-adv-x="442" d="M266 596l-117 -114h-9l172 808h102z" />
<glyph unicode="&#x5da;" horiz-adv-x="968" d="M783 892q0 328 -312 328q-96 0 -174 -21q-26 -7 -62.5 -19t-44.5 -14l20 95q44 18 124 33t165.5 15t158 -24t116.5 -67q93 -89 108 -222q4 -45 4 -79q0 -101 -21 -200l-257 -1209h-104l257 1209q22 95 22 175z" />
<glyph unicode="&#x5db;" horiz-adv-x="961" d="M501 1309q95 0 176 -35t124 -91.5t60.5 -130t17.5 -143.5q0 -86 -22 -192l-38 -181q-32 -145 -99 -262q-29 -50 -77.5 -106.5t-105.5 -96t-140 -65.5t-167.5 -26t-154.5 9t-103 18l-34 9l23 108q11 -6 32.5 -15t93.5 -24t158 -15t166 37.5t130.5 90.5t89.5 122 q59 105 84 216l38 181q22 95 22 175q0 328 -311 328q-113 0 -236 -40q-39 -12 -45 -14l20 95q45 19 124 33.5t174 14.5z" />
<glyph unicode="&#x5dc;" horiz-adv-x="930" d="M992 1296l-25 -114l-335 -675l-199 -507h-104l195 496l352 704h-708l79 369h102l-58 -273h701z" />
<glyph unicode="&#x5dd;" horiz-adv-x="1246" d="M569.5 1306q85.5 4 154 4t111.5 -3.5t85.5 -11t76 -21.5t63 -33.5t48.5 -47.5t30.5 -63t11.5 -82t-12 -102l-201 -946h-904l274 1290q8 0 92.5 6t170 10zM1035 946q10 47 10 82.5t-8.5 62t-23 47.5t-38 35t-49.5 23.5t-60 14.5q-63 9 -172.5 9t-302.5 -15l-238 -1117h699 z" />
<glyph unicode="&#x5de;" horiz-adv-x="1200" d="M389 1155h13q98 98 260 138q69 17 141 17q179 0 249 -114q43 -71 43 -174q0 -62 -16 -136l-188 -886h-385l18 88h284l170 798q13 59 13 108q0 80 -33 136q-54 90 -174 90q-83 0 -155.5 -20t-116.5 -48q-92 -59 -124 -106l-13 -20l-315 -1026h-102l309 1005q11 35 13 57 t3.5 33t0.5 28.5t-1 25.5t-2.5 27.5t-3 24t-4.5 26t-4 24.5l-8 45h109q19 -87 19 -141z" />
<glyph unicode="&#x5df;" horiz-adv-x="462" d="M355 1290q7 -49 7 -96t-2.5 -126t-20.5 -163l-297 -1397h-102l297 1397q24 118 24 214.5t-9 170.5h103z" />
<glyph unicode="&#x5e0;" horiz-adv-x="884" d="M587 1310q129 0 180 -82q33 -53 33 -128q0 -39 -9 -85l-145 -682q-15 -68 -42.5 -151t-47.5 -132l-20 -50h-546l18 88h456q54 127 80 245l145 682q7 39 7 63.5t-2 39.5q-4 45 -38 73.5t-101.5 28.5t-162.5 -17l20 92q78 15 175 15z" />
<glyph unicode="&#x5e1;" horiz-adv-x="1207" d="M743 1310q225 0 320 -156q55 -91 55 -243q0 -114 -30 -263q-73 -339 -235 -503.5t-392 -164.5t-322 164q-52 92 -52 223t32 281q85 400 306 563q-16 -1 -76.5 -3t-91.5 -4l19 92q275 14 467 14zM842 1203q-51 17 -109 17q-106 0 -175 -4l-23 -2q-119 -94 -193 -230 t-116 -336q-33 -153 -33 -254q0 -138 48 -215q31 -50 91 -79.5t147 -29.5t159.5 29.5t125 79.5t95.5 125q75 133 120 344q32 147 32 257q0 176 -86 252q-32 29 -83 46z" />
<glyph unicode="&#x5e2;" horiz-adv-x="1161" d="M1248 1290l-174 -555q-86 -274 -306 -479q-107 -101 -250.5 -170.5t-315.5 -94t-289 -40.5l18 88l293 42q61 9 129 29l-60 1180h99l27 -584l17 -566q189 78 335.5 232.5t211.5 362.5l173 555h92z" />
<glyph unicode="&#x5e3;" horiz-adv-x="1222" d="M430 441q-159 0 -238 117q-53 77 -53 186q0 54 13 115q23 109 83 197t139 142q163 112 343 112q230 0 322 -163q52 -91 52 -222t-32 -280l-242 -1137h-102l242 1137q30 145 30 240.5t-24 172t-91.5 119.5t-162 43t-165.5 -23.5t-121 -61t-89 -85.5q-105 -132 -105 -297 q0 -76 31 -127q50 -83 194 -104l14 -2l-33 -79h-5z" />
<glyph unicode="&#x5e4;" horiz-adv-x="1190" d="M442 441q-159 0 -238 117q-53 77 -53 186q0 54 13 115q23 109 83 197t139 142q162 112 342 112q230 0 322 -163q53 -92 53 -239q0 -115 -32 -263q-72 -339 -233.5 -502t-391.5 -163q-173 0 -284 15l-37 5l19 89q161 -19 320 -19q87 0 159.5 29t125 78.5t94.5 124 t70 157.5t50 186q32 149 32 250q0 140 -49 217q-31 50 -91 79t-144 29t-155.5 -23.5t-121 -61t-88.5 -85.5q-105 -128 -105 -288q0 -85 39 -147q58 -95 185 -95h14l-32 -79h-5z" />
<glyph unicode="&#x5e5;" horiz-adv-x="898" d="M954 1290l-82 -389q-38 -181 -137 -285q-38 -40 -97 -74.5t-132 -52.5l-160 -41l-199 -940h-102l221 1042l-112 740h102l111 -746l159 42q86 23 152 106.5t93 208.5l82 389h101z" />
<glyph unicode="&#x5e6;" horiz-adv-x="1074" d="M1114 1290l-78 -254q-49 -157 -147.5 -298.5t-236.5 -245.5l194 -429l-13 -63h-888l19 88h767l-225 492l-283 710h108l249 -640l38 -82q238 184 327 468l79 254h90z" />
<glyph unicode="&#x5e7;" horiz-adv-x="1174" d="M1213 1202l-302 -609q-11 -23 -40.5 -82.5t-47 -95t-44.5 -92.5t-45 -96t-36 -83q-39 -90 -46 -127l-4 -17h-100l4 17q22 101 240 542q12 23 17 34l302 609h-808l18 88h910zM46 -492h-102l266 1251h102z" />
<glyph unicode="&#x5e8;" horiz-adv-x="993" d="M197 1300q170 10 264 10t137 -3.5t85.5 -11t76 -21.5t63 -33.5t48.5 -47.5t30.5 -63t11.5 -82t-12 -102l-201 -946h-102l201 946q10 47 10 82.5t-9 62t-23.5 47.5t-38 35t-49.5 23.5t-61 14.5q-62 9 -134 9q-118 0 -271 -8l-45 -3z" />
<glyph unicode="&#x5e9;" horiz-adv-x="1369" d="M416 0h-372l165 1290h95l-100 -778q94 24 153 48.5t114.5 63.5t97.5 94q87 115 150 318l79 254h91l-79 -254q-45 -144 -95 -242t-121.5 -173.5t-167.5 -120.5q-96 -47 -233 -74l-43 -339h284q155 0 308 84.5t271 233t174 330.5l172 555h92l-173 -555q-72 -230 -227 -411 q-174 -204 -391 -282q-119 -42 -244 -42z" />
<glyph unicode="&#x5ea;" horiz-adv-x="1232" d="M1094 1193q42 -62 42 -145q0 -47 -12 -102l-201 -946h-102l201 946q10 47 10 82.5t-9 62t-23.5 47.5t-38 35t-49.5 23.5t-60 14.5q-63 9 -152.5 9t-222.5 -7l-193 -905q-65 -308 -331 -308q-22 0 -65 9l18 84q27 -3 66 -3q77 0 132 53.5t78 164.5l192 900l-149 -10l20 92 q296 20 473.5 20t260 -34.5t115.5 -82.5z" />
<glyph unicode="&#x5f3;" horiz-adv-x="297" d="M425 1290l4 -22q-46 -110 -118 -237t-158 -242h-74q68 109 128.5 239t104.5 262h113z" />
<glyph unicode="&#x5f4;" horiz-adv-x="631" d="M430 1290l4 -22q-46 -110 -118 -237t-158 -242h-74q68 109 128.5 239t104.5 262h113zM764 1290l4 -22q-46 -110 -118 -237t-158 -242h-74q68 109 128.5 239t104.5 262h113z" />
<glyph unicode="&#x2013;" horiz-adv-x="983" d="M84 592h807l-17 -90h-808z" />
<glyph unicode="&#x2014;" horiz-adv-x="1966" d="M86 592h1788l-16 -90h-1790z" />
<glyph unicode="&#x2018;" horiz-adv-x="299" d="M479 1462q-141 -227 -233 -501h-113l-4 22q39 98 115 229.5t162 249.5h73z" />
<glyph unicode="&#x2019;" horiz-adv-x="299" d="M475 1462l4 -22q-46 -110 -118 -237t-158 -242h-74q68 109 128.5 239t104.5 262h113z" />
<glyph unicode="&#x201a;" horiz-adv-x="451" d="M246 238l4 -23q-42 -100 -115.5 -230.5t-161.5 -248.5h-73q69 111 131 248q64 137 102 254h113z" />
<glyph unicode="&#x201c;" horiz-adv-x="631" d="M479 1462q-141 -227 -233 -501h-113l-4 22q39 98 115 229.5t162 249.5h73zM813 1462q-141 -227 -233 -501h-113l-4 22q45 107 120 239t156 240h74z" />
<glyph unicode="&#x201d;" horiz-adv-x="631" d="M475 1462l4 -22q-46 -110 -118 -237t-158 -242h-74q68 109 128.5 239t104.5 262h113zM809 1462l4 -22q-46 -110 -118 -237t-158 -242h-74q68 109 128.5 239t104.5 262h113z" />
<glyph unicode="&#x201e;" horiz-adv-x="776" d="M227 238l4 -23q-44 -106 -118 -236.5t-158 -242.5h-74q73 118 135 255q64 136 99 247h112zM561 238l4 -23q-44 -106 -118 -236.5t-158 -242.5h-74q66 108 128.5 241t105.5 261h112z" />
<glyph unicode="&#x2020;" horiz-adv-x="1006" d="M586 1075l-201 -1075h-117l254 1075l-342 -20l25 112l332 -28l61 417h117l-115 -417l365 28l-25 -112z" />
<glyph unicode="&#x2021;" horiz-adv-x="1006" d="M819 485l-24 -112l-353 24l-57 -397h-117l111 397l-344 -24l24 112l334 -24l51 325l80 293l-344 -24l25 112l332 -24l61 413h117l-115 -413l365 24l-25 -112l-352 24l-47 -293l-84 -325z" />
<glyph unicode="&#x2022;" horiz-adv-x="793" d="M248 682q0 136 63 212.5t172 76.5q156 0 156 -158q0 -125 -66 -207t-176 -82q-149 0 -149 158z" />
<glyph unicode="&#x2026;" horiz-adv-x="1489" d="M69 55q0 56 25 88.5t69 32.5q66 0 66 -72q0 -54 -25 -88t-67 -34q-68 0 -68 73zM569 55q0 56 25 88.5t69 32.5q66 0 66 -72q0 -54 -25 -88t-67 -34q-68 0 -68 73zM1071 55q0 56 25 88.5t69 32.5q66 0 66 -72q0 -54 -25 -88t-67 -34q-68 0 -68 73z" />
<glyph unicode="&#x2030;" horiz-adv-x="2255" d="M760 1198q0 -174 -50 -326t-135.5 -230.5t-197.5 -78.5t-172 76t-60 228.5t51 304t136.5 230.5t195.5 79q232 0 232 -283zM319 0h-106l1135 1462h110zM637.5 1353.5q-36.5 53.5 -114 53.5t-143.5 -70.5t-107.5 -201.5t-41.5 -255.5t40.5 -183.5t118.5 -59t143.5 73 t103 205t37.5 258.5t-36.5 180zM1520 612q0 -174 -50 -326t-135.5 -230.5t-197.5 -78.5t-172 76t-60 228.5t51 304t136.5 230.5t199.5 79q228 0 228 -283zM2218 612q0 -174 -50 -326t-135.5 -230.5t-197.5 -78.5t-171.5 76t-59.5 228.5t51 304t136.5 230.5t200 79 t170.5 -70.5t56 -212.5zM1397.5 767.5q-36.5 53.5 -114 53.5t-145.5 -72q-67 -73 -107 -202t-40 -253.5t40.5 -183.5t113.5 -59q130 0 209.5 167t79.5 386q0 110 -36.5 163.5zM2095.5 768.5q-36.5 52.5 -114.5 52.5t-144.5 -71.5t-106.5 -200t-40 -255t40 -185t118 -58.5 t143.5 73t103 205t37.5 259.5t-36.5 180z" />
<glyph unicode="&#x2039;" horiz-adv-x="537" d="M508 883l-318 -336l213 -385l-63 -39l-254 418l2 26l363 365z" />
<glyph unicode="&#x203a;" horiz-adv-x="537" d="M37 172l317 336l-213 385l64 39l254 -418l-2 -27l-363 -364z" />
<glyph unicode="&#x2044;" horiz-adv-x="274" d="M-356 0h-107l1086 1462h108z" />
<glyph unicode="&#x20aa;" horiz-adv-x="1597" d="M722 1290q133 0 196.5 -15t95.5 -33q71 -38 92 -110q11 -35 11 -86t-15 -117l-141 -665h-102l141 665q12 53 12 92.5t-8 67.5t-28 48.5t-44 33t-62 19.5q-64 12 -167 12h-313l-255 -1202h-102l274 1290h415zM676 88q254 0 422.5 143.5t227.5 419.5l136 639h102l-136 -639 q-65 -309 -271 -480t-500 -171h-255l218 1026h102l-199 -938h153z" />
<glyph unicode="&#x20ac;" d="M991 1389q-186 0 -330.5 -120.5t-226.5 -346.5h457l-21 -82h-460q-30 -97 -39 -217h442l-20 -82h-424q0 -241 88 -355t266 -114q115 0 252 57v-94q-128 -55 -270 -55q-210 0 -325.5 139.5t-115.5 394.5v27h-184l16 82h172q4 99 35 217h-170l19 82h174q94 273 270 417 t399 144q165 0 287 -90l-53 -82q-102 78 -238 78z" />
<glyph unicode="&#x2122;" horiz-adv-x="1534" d="M391 741v643h-217v78h522v-78h-219v-643h-86zM854 741h-82v721h125l221 -606l223 606h125v-721h-86v398l4 207h-6l-227 -605h-74l-221 609h-6l4 -201v-408z" />
<glyph unicode="&#x221e;" horiz-adv-x="1434" d="M416 1034q92 0 164.5 -54t136.5 -175q63 120 135 174.5t166 54.5q127 0 210 -89t83 -223t-84 -222q-82 -88 -209 -88q-94 0 -166 54.5t-135 174.5q-65 -121 -137.5 -175t-163.5 -54q-128 0 -210.5 88.5t-82.5 222.5t83 223q84 88 210 88zM548 888.5q-58 49.5 -138.5 49.5 t-133.5 -59t-53 -156t53 -156t134 -59t137.5 48.5t118.5 166.5q-60 116 -118 165.5zM1157 879q-53 59 -135 59t-139.5 -51.5t-114.5 -163.5q57 -112 114.5 -163.5t140 -51.5t135.5 59q52 59 52 156t-53 156z" />
<glyph unicode="&#x2260;" horiz-adv-x="1169" d="M111 477v82h350l153 326h-503v82h542l144 305l73 -39l-125 -266h314v-82h-352l-154 -326h506v-82h-545l-139 -299l-76 37l123 262h-311z" />
<glyph unicode="&#x2264;" horiz-adv-x="1169" d="M137 676v74l914 471v-103l-801 -399l801 -350v-107zM168 90h903v-100h-903v100z" />
<glyph unicode="&#x2265;" horiz-adv-x="1169" d="M971 719l-801 399v103l915 -471v-74l-915 -414v107zM168 90h903v-100h-903v100z" />
<glyph unicode="&#x25ca;" horiz-adv-x="1188" d="M569 1475h49l451 -740l-451 -735h-49l-450 735zM594 1356l-375 -621l375 -614l375 614z" />
<glyph unicode="&#x25fc;" horiz-adv-x="1085" d="M0 1085h1085v-1085h-1085v1085z" />
<glyph unicode="&#xfb01;" horiz-adv-x="1053" d="M344 -492q-49 0 -102 19v90q51 -16 100 -16q87 0 133.5 52.5t75.5 186.5l246 1166h-205l14 67l205 14l35 160q35 168 116.5 244t227.5 76q74 0 166 -31l-25 -80q-87 27 -147 27q-97 0 -154 -54t-84 -178l-35 -164h248l-16 -81h-248l-252 -1190q-33 -161 -104 -234.5 t-195 -73.5zM350 1366q0 55 22 88t60 33q57 0 57 -72q0 -56 -21.5 -89.5t-57.5 -33.5q-60 0 -60 74zM76 0l231 1087h96l-229 -1087h-98z" />
<glyph unicode="&#xfb02;" horiz-adv-x="1053" d="M344 -492q-49 0 -102 19v90q51 -16 100 -16q87 0 133.5 52.5t75.5 186.5l246 1166h-205l14 67l205 14l35 160q35 168 116.5 244t227.5 76q74 0 166 -31l-25 -80q-87 27 -147 27q-97 0 -154 -54t-84 -178l-35 -164h248l-16 -81h-248l-252 -1190q-33 -161 -104 -234.5 t-195 -73.5zM410 1556h94l-334 -1556h-94z" />
<glyph unicode="&#xfb2a;" horiz-adv-x="1369" d="M1490 1548q51 0 51 -49q0 -12 -3 -27q-17 -74 -80 -74q-49 0 -49 46q0 12 4 28q16 76 77 76zM416 0h-372l165 1290h95l-100 -778q94 24 153 48.5t114.5 63.5t97.5 94q87 115 150 318l79 254h91l-79 -254q-45 -144 -95 -242t-121.5 -173.5t-167.5 -120.5q-96 -47 -233 -74 l-43 -339h284q155 0 308 84.5t271 233t174 330.5l172 555h92l-173 -555q-72 -230 -227 -411q-174 -204 -391 -282q-119 -42 -244 -42z" />
<glyph unicode="&#xfb2b;" horiz-adv-x="1369" d="M292 1548q51 0 51 -49q0 -12 -3 -27q-17 -74 -80 -74q-49 0 -49 46q0 12 4 28q16 76 77 76zM416 0h-372l165 1290h95l-100 -778q94 24 153 48.5t114.5 63.5t97.5 94q87 115 150 318l79 254h91l-79 -254q-45 -144 -95 -242t-121.5 -173.5t-167.5 -120.5q-96 -47 -233 -74 l-43 -339h284q155 0 308 84.5t271 233t174 330.5l172 555h92l-173 -555q-72 -230 -227 -411q-174 -204 -391 -282q-119 -42 -244 -42z" />
<glyph unicode="&#xfb2c;" horiz-adv-x="1369" d="M1490 1548q51 0 51 -49q0 -12 -3 -27q-17 -74 -80 -74q-49 0 -49 46q0 12 4 28q16 76 77 76zM416 0h-372l165 1290h95l-100 -778q94 24 153 48.5t114.5 63.5t97.5 94q87 115 150 318l79 254h91l-79 -254q-45 -144 -95 -242t-121.5 -173.5t-167.5 -120.5q-96 -47 -233 -74 l-43 -339h284q155 0 308 84.5t271 233t174 330.5l172 555h92l-173 -555q-72 -230 -227 -411q-174 -204 -391 -282q-119 -42 -244 -42zM734 526q51 0 51 -49q0 -12 -3 -27q-17 -74 -80 -74q-49 0 -49 46q0 12 4 28q16 76 77 76z" />
<glyph unicode="&#xfb2d;" horiz-adv-x="1369" d="M292 1548q51 0 51 -49q0 -12 -3 -27q-17 -74 -80 -74q-49 0 -49 46q0 12 4 28q16 76 77 76zM416 0h-372l165 1290h95l-100 -778q94 24 153 48.5t114.5 63.5t97.5 94q87 115 150 318l79 254h91l-79 -254q-45 -144 -95 -242t-121.5 -173.5t-167.5 -120.5q-96 -47 -233 -74 l-43 -339h284q155 0 308 84.5t271 233t174 330.5l172 555h92l-173 -555q-72 -230 -227 -411q-174 -204 -391 -282q-119 -42 -244 -42zM734 526q51 0 51 -49q0 -12 -3 -27q-17 -74 -80 -74q-49 0 -49 46q0 12 4 28q16 76 77 76z" />
<glyph unicode="&#xfb2e;" horiz-adv-x="1141" d="M1150 1290l-100 -472q-11 -53 -24 -95.5t-39 -95t-59 -91.5t-85.5 -73t-117.5 -50l162 -413h-110l-313 799q-45 0 -94 -25q-80 -41 -127 -119t-75 -207l-95 -448h-98l95 449q12 55 26 101.5t42.5 105t65.5 101.5t95.5 78.5t131.5 48.5l-160 406h109l312 -793q34 6 63 20 q82 40 126 107.5t71 194.5l100 471h98zM565 -216h-357l16 72h357z" />
<glyph unicode="&#xfb2f;" horiz-adv-x="1141" d="M1150 1290l-100 -472q-11 -53 -24 -95.5t-39 -95t-59 -91.5t-85.5 -73t-117.5 -50l162 -413h-110l-313 799q-45 0 -94 -25q-80 -41 -127 -119t-75 -207l-95 -448h-98l95 449q12 55 26 101.5t42.5 105t65.5 101.5t95.5 78.5t131.5 48.5l-160 406h109l312 -793q34 6 63 20 q82 40 126 107.5t71 194.5l100 471h98zM566 -216h-143l-43 -201h-71l43 201h-143l15 72h357z" />
<glyph unicode="&#xfb30;" horiz-adv-x="1141" d="M1150 1290l-100 -472q-11 -53 -24 -95.5t-39 -95t-59 -91.5t-85.5 -73t-117.5 -50l162 -413h-110l-313 799q-45 0 -94 -25q-80 -41 -127 -119t-75 -207l-95 -448h-98l95 449q12 55 26 101.5t42.5 105t65.5 101.5t95.5 78.5t131.5 48.5l-160 406h109l312 -793q34 6 63 20 q82 40 126 107.5t71 194.5l100 471h98zM389 448q51 0 51 -49q0 -12 -3 -27q-17 -74 -80 -74q-49 0 -49 46q0 12 4 28q16 76 77 76z" />
<glyph unicode="&#xfb31;" horiz-adv-x="1016" d="M209 1300q158 10 245 10t130 -3.5t85.5 -11t76 -21.5t63 -33.5t48.5 -47.5t30.5 -63t11.5 -82t-12 -102l-183 -858h151l-18 -88h-903l18 88h650l183 858q10 47 10 82.5t-9 62t-23.5 47.5t-38 35t-49.5 23.5t-61 14.5q-62 9 -151.5 9t-272.5 -11zM387 741q51 0 51 -49 q0 -12 -3 -27q-17 -74 -80 -74q-49 0 -49 46q0 12 4 28q16 76 77 76z" />
<glyph unicode="&#xfb32;" horiz-adv-x="770" d="M537 1310q127 0 169 -80q24 -46 24 -102.5t-12 -112.5l-216 -1015h-87l35 213h-7q-68 -85 -112 -121q-114 -96 -260 -96q-58 0 -128 11l38 94q52 -13 119 -13q137 0 252.5 115.5t156.5 307.5l107 504q12 62 12 105.5t-28.5 71.5t-89 28t-152.5 -17l19 92q80 15 160 15z M296 741q51 0 51 -49q0 -12 -3 -27q-17 -74 -80 -74q-49 0 -49 46q0 12 4 28q16 76 77 76z" />
<glyph unicode="&#xfb33;" horiz-adv-x="989" d="M1086 1290l-16 -77q-49 -16 -85 -34t-77 -50q-83 -65 -113 -201l-197 -928h-102l197 928q13 59 38 109t52 79q55 59 93 78l16 8h-729l19 88h904zM385 741q51 0 51 -49q0 -12 -3 -27q-17 -74 -80 -74q-49 0 -49 46q0 12 4 28q16 76 77 76z" />
<glyph unicode="&#xfb34;" horiz-adv-x="1256" d="M317 1290q296 20 390.5 20t137.5 -3.5t85.5 -11t76 -21.5t63 -33.5t48.5 -47.5t30.5 -63t11.5 -82t-12 -102l-201 -946h-103l201 946q10 47 10 82.5t-8.5 62t-23 47.5t-38 35t-49.5 23.5t-60 14.5q-63 9 -172.5 9t-406.5 -22zM145 0h-102l173 813h102zM644 741 q51 0 51 -49q0 -12 -3 -27q-17 -74 -80 -74q-49 0 -49 46q0 12 4 28q16 76 77 76z" />
<glyph unicode="&#xfb35;" horiz-adv-x="466" d="M148 0h-102l274 1290h102zM19 741q51 0 51 -49q0 -12 -3 -27q-17 -74 -80 -74q-49 0 -49 46q0 12 4 28q16 76 77 76z" />
<glyph unicode="&#xfb36;" horiz-adv-x="466" d="M573 1290l-16 -77q-71 -48 -139.5 -156t-97.5 -242l-173 -815h-102l173 815q17 79 49 150t68 119q66 84 110 118h-289l19 88h398zM19 741q51 0 51 -49q0 -12 -3 -27q-17 -74 -80 -74q-49 0 -49 46q0 12 4 28q16 76 77 76z" />
<glyph unicode="&#xfb38;" horiz-adv-x="1258" d="M796 1310q230 0 322 -163q53 -92 53 -239q0 -115 -32 -263q-72 -339 -233.5 -502t-392 -163t-323.5 163q-52 92 -52 239q0 115 32 263l137 645h103l-137 -645q-32 -148 -32 -248q0 -140 51 -219q32 -50 92.5 -79t147.5 -29t159.5 29t125 78.5t94.5 124t70 157.5t50 186 q32 149 32 250q0 140 -49 217q-31 50 -91 79t-147 29q-46 0 -94 -10l20 92q48 8 94 8zM662 741q51 0 51 -49q0 -12 -3 -27q-17 -74 -80 -74q-49 0 -49 46q0 12 4 28q16 76 77 76z" />
<glyph unicode="&#xfb39;" horiz-adv-x="442" d="M266 596l-117 -114h-9l172 808h102zM87 974q51 0 51 -49q0 -12 -3 -27q-17 -74 -80 -74q-49 0 -49 46q0 12 4 28q16 76 77 76z" />
<glyph unicode="&#xfb3a;" horiz-adv-x="968" d="M783 892q0 328 -312 328q-96 0 -174 -21q-26 -7 -62.5 -19t-44.5 -14l20 95q44 18 124 33t165.5 15t158 -24t116.5 -67q93 -89 108 -222q4 -45 4 -79q0 -101 -21 -200l-257 -1209h-104l257 1209q22 95 22 175zM431 741q51 0 51 -49q0 -12 -3 -27q-17 -74 -80 -74 q-49 0 -49 46q0 12 4 28q16 76 77 76z" />
<glyph unicode="&#xfb3b;" horiz-adv-x="961" d="M501 1309q95 0 176 -35t124 -91.5t60.5 -130t17.5 -143.5q0 -86 -22 -192l-38 -181q-32 -145 -99 -262q-29 -50 -77.5 -106.5t-105.5 -96t-140 -65.5t-167.5 -26t-154.5 9t-103 18l-34 9l23 108q11 -6 32.5 -15t93.5 -24t158 -15t166 37.5t130.5 90.5t89.5 122 q59 105 84 216l38 181q22 95 22 175q0 328 -311 328q-113 0 -236 -40q-39 -12 -45 -14l20 95q45 19 124 33.5t174 14.5zM376 741q51 0 51 -49q0 -12 -3 -27q-17 -74 -80 -74q-49 0 -49 46q0 12 4 28q16 76 77 76z" />
<glyph unicode="&#xfb3c;" horiz-adv-x="930" d="M992 1296l-25 -114l-335 -675l-199 -507h-104l195 496l352 704h-708l79 369h102l-58 -273h701zM310 591q-49 0 -49 46q0 12 4 28q16 76 77 76q51 0 51 -49q0 -12 -3 -27q-17 -74 -80 -74z" />
<glyph unicode="&#xfb3e;" horiz-adv-x="1200" d="M389 1155h13q98 98 260 138q69 17 141 17q179 0 249 -114q43 -71 43 -174q0 -62 -16 -136l-188 -886h-385l18 88h284l170 798q13 59 13 108q0 80 -33 136q-54 90 -174 90q-83 0 -155.5 -20t-116.5 -48q-92 -59 -124 -106l-13 -20l-315 -1026h-102l309 1005q11 35 13 57 t3.5 33t0.5 28.5t-1 25.5t-2.5 27.5t-3 24t-4.5 26t-4 24.5l-8 45h109q19 -87 19 -141zM616 741q51 0 51 -49q0 -12 -3 -27q-17 -74 -80 -74q-49 0 -49 46q0 12 4 28q16 76 77 76z" />
<glyph unicode="&#xfb40;" horiz-adv-x="884" d="M587 1310q129 0 180 -82q33 -53 33 -128q0 -39 -9 -85l-145 -682q-15 -68 -42.5 -151t-47.5 -132l-20 -50h-546l18 88h456q54 127 80 245l145 682q7 39 7 63.5t-2 39.5q-4 45 -38 73.5t-101.5 28.5t-162.5 -17l20 92q78 15 175 15zM408 741q51 0 51 -49q0 -12 -3 -27 q-17 -74 -80 -74q-49 0 -49 46q0 12 4 28q16 76 77 76z" />
<glyph unicode="&#xfb41;" horiz-adv-x="1207" d="M743 1310q225 0 320 -156q55 -91 55 -243q0 -114 -30 -263q-73 -339 -235 -503.5t-392 -164.5t-322 164q-52 92 -52 223t32 281q85 400 306 563q-16 -1 -76.5 -3t-91.5 -4l19 92q275 14 467 14zM842 1203q-51 17 -109 17q-106 0 -175 -4l-23 -2q-119 -94 -193 -230 t-116 -336q-33 -153 -33 -254q0 -138 48 -215q31 -50 91 -79.5t147 -29.5t159.5 29.5t125 79.5t95.5 125q75 133 120 344q32 147 32 257q0 176 -86 252q-32 29 -83 46zM621 741q51 0 51 -49q0 -12 -3 -27q-17 -74 -80 -74q-49 0 -49 46q0 12 4 28q16 76 77 76z" />
<glyph unicode="&#xfb43;" horiz-adv-x="1222" d="M430 441q-159 0 -238 117q-53 77 -53 186q0 54 13 115q23 109 83 197t139 142q163 112 343 112q230 0 322 -163q52 -91 52 -222t-32 -280l-242 -1137h-102l242 1137q30 145 30 240.5t-24 172t-91.5 119.5t-162 43t-165.5 -23.5t-121 -61t-89 -85.5q-105 -132 -105 -297 q0 -76 31 -127q50 -83 194 -104l14 -2l-33 -79h-5zM634 931q51 0 51 -49q0 -12 -3 -27q-17 -74 -80 -74q-49 0 -49 46q0 12 4 28q16 76 77 76z" />
<glyph unicode="&#xfb44;" horiz-adv-x="1190" d="M442 441q-159 0 -238 117q-53 77 -53 186q0 54 13 115q23 109 83 197t139 142q162 112 342 112q230 0 322 -163q53 -92 53 -239q0 -115 -32 -263q-72 -339 -233.5 -502t-391.5 -163q-173 0 -284 15l-37 5l19 89q161 -19 320 -19q87 0 159.5 29t125 78.5t94.5 124 t70 157.5t50 186q32 149 32 250q0 140 -49 217q-31 50 -91 79t-144 29t-155.5 -23.5t-121 -61t-88.5 -85.5q-105 -128 -105 -288q0 -85 39 -147q58 -95 185 -95h14l-32 -79h-5zM652 922q51 0 51 -49q0 -12 -3 -27q-17 -74 -80 -74q-49 0 -49 46q0 12 4 28q16 76 77 76z" />
<glyph unicode="&#xfb46;" horiz-adv-x="1074" d="M1114 1290l-78 -254q-49 -157 -147.5 -298.5t-236.5 -245.5l194 -429l-13 -63h-888l19 88h767l-225 492l-283 710h108l249 -640l38 -82q238 184 327 468l79 254h90zM243 571q51 0 51 -49q0 -12 -3 -27q-17 -74 -80 -74q-49 0 -49 46q0 12 4 28q16 76 77 76z" />
<glyph unicode="&#xfb47;" horiz-adv-x="1174" d="M1213 1202l-302 -609q-11 -23 -40.5 -82.5t-47 -95t-44.5 -92.5t-45 -96t-36 -83q-39 -90 -46 -127l-4 -17h-100l4 17q22 101 240 542q12 23 17 34l302 609h-808l18 88h910zM46 -492h-102l266 1251h102zM589 741q51 0 51 -49q0 -12 -3 -27q-17 -74 -80 -74q-49 0 -49 46 q0 12 4 28q16 76 77 76z" />
<glyph unicode="&#xfb48;" horiz-adv-x="993" d="M197 1300q170 10 264 10t137 -3.5t85.5 -11t76 -21.5t63 -33.5t48.5 -47.5t30.5 -63t11.5 -82t-12 -102l-201 -946h-102l201 946q10 47 10 82.5t-9 62t-23.5 47.5t-38 35t-49.5 23.5t-61 14.5q-62 9 -134 9q-118 0 -271 -8l-45 -3zM369 741q51 0 51 -49q0 -12 -3 -27 q-17 -74 -80 -74q-49 0 -49 46q0 12 4 28q16 76 77 76z" />
<glyph unicode="&#xfb49;" horiz-adv-x="1369" d="M416 0h-372l165 1290h95l-100 -778q94 24 153 48.5t114.5 63.5t97.5 94q87 115 150 318l79 254h91l-79 -254q-45 -144 -95 -242t-121.5 -173.5t-167.5 -120.5q-96 -47 -233 -74l-43 -339h284q155 0 308 84.5t271 233t174 330.5l172 555h92l-173 -555q-72 -230 -227 -411 q-174 -204 -391 -282q-119 -42 -244 -42zM734 526q51 0 51 -49q0 -12 -3 -27q-17 -74 -80 -74q-49 0 -49 46q0 12 4 28q16 76 77 76z" />
<glyph unicode="&#xfb4a;" horiz-adv-x="1232" d="M1094 1193q42 -62 42 -145q0 -47 -12 -102l-201 -946h-102l201 946q10 47 10 82.5t-9 62t-23.5 47.5t-38 35t-49.5 23.5t-60 14.5q-63 9 -152.5 9t-222.5 -7l-193 -905q-65 -308 -331 -308q-22 0 -65 9l18 84q27 -3 66 -3q77 0 132 53.5t78 164.5l192 900l-149 -10l20 92 q296 20 473.5 20t260 -34.5t115.5 -82.5zM655 741q51 0 51 -49q0 -12 -3 -27q-17 -74 -80 -74q-49 0 -49 46q0 12 4 28q16 76 77 76z" />
<glyph unicode="&#xfb4b;" horiz-adv-x="466" d="M394 1548q51 0 51 -49q0 -12 -3 -27q-17 -74 -80 -74q-49 0 -49 46q0 12 4 28q16 76 77 76zM147 0h-102l274 1290h102z" />
<glyph horiz-adv-x="0" />
<glyph horiz-adv-x="1256" d="M872 1532l-18 -83h-470l18 83h470z" />
</font>
</defs>
</svg>
